<?xml version="1.0" standalone="no"?>
<!DOCTYPE svg PUBLIC "-//W3C//DTD SVG 1.1//EN" "http://www.w3.org/Graphics/SVG/1.1/DTD/svg11.dtd" >
<svg xmlns="http://www.w3.org/2000/svg">
<metadata>
This is a custom SVG webfont generated by Font Squirrel.
Copyright   : 251 m klein 696   602   all rights reserved
</metadata>
<defs>
<font id="FranKleinBookRegular" horiz-adv-x="548" >
<font-face units-per-em="1000" ascent="800" descent="-200" />
<missing-glyph horiz-adv-x="222" />
<glyph unicode="&#xd;" horiz-adv-x="231" d="M150 0v31v478h-70v-509h52h18z" />
<glyph horiz-adv-x="348" d="M319 705h-44q-14 -32 -41.5 -43.5t-59.5 -11.5q-33 0 -60 11t-41 44h-44q11 -59 49 -86t96 -27t96 27t49 86z" />
<glyph horiz-adv-x="231" d="M159 608v92h-88v-92h88z" />
<glyph horiz-adv-x="270" d="M228 652q0 19 -7.5 36t-20 29.5t-29.5 20t-36 7.5t-36 -7.5t-29.5 -20t-20 -29.5t-7.5 -36q0 -39 27 -66t66 -27q19 0 36 7.5t29.5 20t20 29.5t7.5 36zM187 652q0 -21 -15.5 -36.5t-36.5 -15.5q-23 0 -37.5 14.5t-14.5 37.5t14.5 37.5t37.5 14.5t37.5 -15t14.5 -37z" />
<glyph unicode="&#xa;" horiz-adv-x="358" d="M416 682l-65 27l-128 -157l39 -17zM253 682l-66 27l-127 -157l39 -17z" />
<glyph horiz-adv-x="270" d="M258 -128l-14 19q-14 -12 -27 -19t-32 -7q-21 0 -34.5 11.5t-13.5 33.5q0 13 6 26t15 24.5t20 21.5t21 18h-32q-14 -7 -30 -17.5t-29.5 -24t-22.5 -29.5t-9 -33q0 -18 8 -31t20.5 -21.5t28 -12.5t31.5 -4q26 0 52.5 11t41.5 34z" />
<glyph horiz-adv-x="348" d="M325 701l-59 4l-92 -82l-91 82l-59 -4l130 -134h40z" />
<glyph horiz-adv-x="164" d="M320 703h-64l-413 -714h63z" />
<glyph horiz-adv-x="529" d="M447 622v86h-74v-86h74zM445 0v31v478h-70v-509h52h18zM321 721q-34 10 -74 10q-51 0 -78.5 -20.5t-40 -52.5t-15 -71.5t-2.5 -77.5h-97v-58h97v-451h70v451h117v58h-117q0 25 -0.5 53.5t6 53t23.5 41t53 16.5q17 0 28 -2.5t27 -7.5z" />
<glyph horiz-adv-x="529" d="M446 0v719h-70v-719h70zM307 721q-11 6 -25 8t-26 2q-52 0 -81 -19.5t-43 -51t-17 -71.5t-3 -80h-97v-58h97v-451h71q-1 8 -1 15v16v420h117v58h-117v41q0 20 2 41.5t9.5 39.5t22.5 30t41 12q14 0 24 -2.5t23 -7.5z" />
<glyph horiz-adv-x="471" d="M461 0v67h-300v255l134 110v70l-134 -110v300h-77v-363l-72 -59v-70l72 59v-259h377z" />
<glyph horiz-adv-x="211" d="M203 440v74l-60 -53v258h-70v-319l-59 -52v-74l59 52v-326h52l6 31h12v356z" />
<glyph horiz-adv-x="520" d="M410 872l-59 4l-92 -82l-91 82l-59 -4l130 -134h40zM487 0v67h-383l371 566v59h-443v-66h357l-370 -559v-67h468z" />
<glyph horiz-adv-x="432" d="M368 701l-59 4l-92 -82l-91 82l-59 -4l130 -134h40zM408 0v58h-294l293 402v49h-361v-58h274l-290 -393v-58h378z" />
<glyph unicode=" "  horiz-adv-x="222" />
<glyph unicode="&#x09;" horiz-adv-x="222" />
<glyph unicode="&#xa0;" horiz-adv-x="222" />
<glyph unicode="!" horiz-adv-x="345" d="M219 693h-98q5 -132 11 -262t14 -262h49q8 131 14 261.5t10 262.5zM216 0v90h-90v-90h90z" />
<glyph unicode="&#x22;" horiz-adv-x="509" d="M366 579v113h-78v-112q0 -29 5 -60t8 -60h52q3 29 8 59.5t5 59.5zM219 579v113h-78v-112q0 -29 5 -60t8 -60h52q3 29 8 59.5t5 59.5z" />
<glyph unicode="#" horiz-adv-x="578" d="M544 427v58h-100l34 207h-63l-34 -207h-134l34 207h-63l-34 -207h-118v-58h109l-26 -156h-114v-58h105l-35 -213h63l35 213h134l-35 -213h63l35 213h113v58h-104l26 156h109zM372 427l-26 -156h-134l26 156h134z" />
<glyph unicode="$" horiz-adv-x="578" d="M506 189q0 61 -26 97.5t-64.5 59t-84 37t-84 31t-64.5 40.5t-26 66q0 30 13 50.5t34 34t47 19.5t52 6q18 0 45.5 -6t52.5 -12.5t43 -12.5l18 -6l23 52l-17 7t-41.5 15.5t-53 16t-52.5 9.5v72h-56v-75q-35 -5 -67.5 -18t-57 -34t-39.5 -50.5t-15 -68.5q0 -57 26 -92 t64.5 -57t83.5 -37t83.5 -32.5t64.5 -42.5t26 -68q0 -31 -13.5 -54t-35 -38t-48.5 -22.5t-54 -7.5q-22 0 -52 7.5t-57 16.5t-45.5 16.5l-18.5 7.5l-37 -49l19 -9.5t48 -21t62.5 -22t62.5 -11.5v-85h56v88q37 5 70.5 19.5t59 37.5t40.5 54.5t15 71.5z" />
<glyph unicode="%" horiz-adv-x="853" d="M786 175q0 36 -8.5 68.5t-26.5 57.5t-46.5 40t-68.5 15q-42 0 -70.5 -14.5t-46 -39.5t-25.5 -58t-8 -70q0 -36 8.5 -69t26.5 -58t46.5 -40t68.5 -15t68.5 15t46.5 40.5t26.5 58.5t8.5 69zM724 174q0 -21 -4 -44t-13.5 -41.5t-26.5 -31t-43 -12.5q-27 0 -44.5 12 t-27.5 30.5t-13.5 41.5t-3.5 45t3.5 45t13 42t26.5 31t44 12t44.5 -12t27 -31t13.5 -42t4 -45zM685 703h-66l-433 -714h65zM366 519q0 36 -8.5 68.5t-26.5 57.5t-46.5 40t-68.5 15q-42 0 -70.5 -14.5t-46 -39.5t-25.5 -58t-8 -70q0 -36 8.5 -69t26.5 -58.5t46.5 -40.5 t68.5 -15t68.5 15.5t46.5 41t26.5 58.5t8.5 69zM304 518q0 -21 -4 -44t-13.5 -42t-26.5 -31.5t-43 -12.5q-27 0 -44.5 12t-27.5 31t-13.5 42t-3.5 45t3.5 45t13 42t26.5 31t44 12t44.5 -12t27 -31t13.5 -42t4 -45z" />
<glyph unicode="&#x26;" horiz-adv-x="673" d="M650 -3l-14.5 13t-35.5 32t-43.5 40.5t-38.5 37.5q44 54 69.5 119t33.5 133l-65 7q-6 -54 -25.5 -111t-51.5 -102l-2 -2q-44 51 -84.5 104t-80.5 107q32 13 61 30t50.5 40t34.5 52t13 67q0 34 -13.5 60.5t-36.5 43.5t-52.5 26t-60.5 9q-33 0 -64 -10t-54.5 -29.5 t-37.5 -47t-14 -63.5q0 -23 7 -45t18.5 -42t25.5 -39t28 -36q-37 -12 -68 -30.5t-54 -43.5t-36 -57.5t-13 -73.5q0 -48 19 -85t51 -62t73.5 -37.5t85.5 -12.5q32 0 59 5t50.5 15.5t46 26.5t45.5 38q15 -19 39.5 -40.5t48 -39.5t40 -30l16.5 -12zM404 551q0 -27 -11.5 -47.5 t-29.5 -36.5t-40.5 -28t-43.5 -22q-12 14 -24.5 30t-23 34t-17 36.5t-6.5 37.5q0 20 8 36.5t21.5 28t31 18t36.5 6.5q45 0 72 -23.5t27 -69.5zM439 120q-32 -32 -73 -52t-88 -20q-32 0 -60 10t-49 29t-33.5 46t-12.5 60q0 30 10.5 54t28.5 42.5t41.5 33t48.5 24.5z" />
<glyph unicode="'" horiz-adv-x="289" d="M183 579v113h-78v-112q0 -29 5 -60t8 -60h52q3 29 8 59.5t5 59.5z" />
<glyph unicode="(" horiz-adv-x="289" d="M253 -155q-29 41 -50 88t-39 93q-24 62 -37 126.5t-13 130.5t13 131t37 127q18 46 39 93t50 88h-47q-31 -42 -55.5 -87.5t-46.5 -92.5q-58 -122 -58 -259q0 -136 58 -258q22 -47 46.5 -92.5t55.5 -87.5h47z" />
<glyph unicode=")" horiz-adv-x="289" d="M242 283q0 137 -58 259q-22 47 -46.5 92.5t-55.5 87.5h-47q29 -41 50 -88t39 -93q24 -62 37 -127t13 -131t-13 -130.5t-37 -126.5q-18 -46 -39 -93t-50 -88h47q31 42 55.5 87.5t46.5 92.5q58 122 58 258z" />
<glyph unicode="*" horiz-adv-x="578" d="M476 421l-139 73l139 73l-29 52l-134 -84l6 157h-58l6 -157l-134 84l-29 -52l139 -73l-139 -73l29 -52l134 84l-6 -157h58l-6 157l134 -84z" />
<glyph unicode="+" horiz-adv-x="600" d="M555 239v68h-221v219h-68v-219h-222v-68h222v-222h68v222h221z" />
<glyph unicode="," horiz-adv-x="289" d="M205 70v14q0 7 -1 15h-97q0 -58 -9.5 -116.5t-23.5 -114.5l39 -28q16 19 32.5 48t29.5 61t21.5 63.5t8.5 57.5z" />
<glyph unicode="-" horiz-adv-x="278" d="M252 255v66h-232v-66h232z" />
<glyph unicode="." horiz-adv-x="289" d="M195 0v98h-96v-98h96z" />
<glyph unicode="/" horiz-adv-x="397" d="M374 703h-66l-350 -735h66z" />
<glyph unicode="0" horiz-adv-x="578" d="M532 346q0 59 -11 122t-38.5 114.5t-74.5 84.5t-119 33t-119.5 -33t-75 -84.5t-38.5 -114.5t-11 -122t11 -122t38.5 -114.5t74.5 -84.5t119 -33t119.5 33t75 84.5t38.5 114.5t11 122zM454 346q0 -41 -5.5 -91.5t-22.5 -95t-50 -74.5t-87 -30q-56 0 -88.5 30t-50 74 t-22.5 94.5t-5 92.5q0 41 5.5 91.5t22.5 95t50 74.5t87 30q55 0 88 -30t50.5 -74t22.5 -94.5t5 -92.5z" />
<glyph unicode="1" horiz-adv-x="578" d="M448 0v51h-95l-1 641h-62q-40 -43 -91 -86.5t-101 -75.5l30 -51q40 29 77 58t72 64v-550h-100v-51h271z" />
<glyph unicode="2" horiz-adv-x="578" d="M506 0l-1 65h-356l205 190q26 24 51.5 52.5t46 61t33.5 67.5t13 72q0 48 -18 84t-49 60t-71 36t-84 12q-67 0 -119.5 -28.5t-90.5 -83.5l46 -44q29 45 71 68t95 23q28 0 53.5 -9.5t44.5 -27t30 -41.5t11 -53q0 -30 -10.5 -58.5t-27.5 -53.5q-26 -39 -67 -82.5t-86.5 -87 t-91 -84t-81.5 -73.5v-65h453z" />
<glyph unicode="3" horiz-adv-x="578" d="M516 193q0 71 -42 116.5t-112 52.5q30 6 55.5 20t44.5 34.5t30 47t11 58.5q0 48 -19.5 82t-51.5 55t-72.5 31t-82.5 10q-63 0 -110 -19.5t-93 -62.5l40 -45q38 33 74 48t87 15q26 0 53 -6.5t48.5 -21t35.5 -36t14 -51.5q0 -50 -25 -76.5t-62.5 -38.5t-80.5 -13.5 t-79 -1.5v-64q36 0 80.5 -1t84.5 -12.5t67 -38t27 -78.5q0 -39 -15.5 -65.5t-41 -43t-58 -24t-65.5 -7.5q-25 0 -58 10.5t-62.5 23.5t-50 23.5l-20.5 10.5l-22 -57l21.5 -12t53.5 -26t69 -26t69 -12q46 0 92.5 11.5t83 36t59.5 62.5t23 91z" />
<glyph unicode="4" horiz-adv-x="578" d="M546 160v63h-108v469h-96l-314 -469v-63h335v-160h75v160h108zM363 223h-259l259 402v-402z" />
<glyph unicode="5" horiz-adv-x="578" d="M519 225q0 52 -17 93.5t-47 70t-72.5 43.5t-93.5 15q-36 0 -70 -11.5t-63 -32.5l9 222h313l4 67h-382l-14 -360l33 -7q32 31 71.5 44t84.5 13q37 0 68 -10t53.5 -29.5t35 -48.5t12.5 -68q0 -41 -13.5 -72.5t-38 -53.5t-58 -33t-72.5 -11q-24 0 -51.5 9t-51 19.5 t-39.5 19.5l-16 9l-37 -49l19.5 -11.5t49 -25t64 -24.5t63.5 -11q53 0 100 15.5t81.5 45t54.5 73t20 99.5z" />
<glyph unicode="6" horiz-adv-x="578" d="M531 219q0 49 -15.5 90.5t-44 71.5t-69 47t-90.5 17q-63 0 -110.5 -29.5t-76.5 -85.5q0 55 9.5 109.5t33.5 98t66.5 70.5t108.5 27q18 0 43 -6.5t47.5 -14.5t38.5 -14.5l16 -6.5l25 54v1l-69 33q-22 11 -49 15t-51 4q-83 0 -139 -32t-90.5 -85t-49 -120.5t-14.5 -139.5 q0 -62 11 -121t39 -106t76 -75.5t121 -28.5q50 0 92.5 16.5t74 46.5t49 71.5t17.5 92.5zM457 218q0 -35 -11.5 -64.5t-32.5 -51t-50.5 -33.5t-64.5 -12q-37 0 -67 13t-51 36.5t-32 55t-11 67.5q0 34 14.5 61.5t38.5 47.5t54 31t61 11q36 0 64.5 -12t48 -34t29.5 -51.5 t10 -64.5z" />
<glyph unicode="7" horiz-adv-x="578" d="M507 636v56h-439l-4 -67h363q-89 -145 -156.5 -301.5t-102.5 -323.5h81q36 171 101.5 329.5t156.5 306.5z" />
<glyph unicode="8" horiz-adv-x="578" d="M537 182q0 37 -14 66.5t-37 51.5t-52.5 38t-61.5 27q26 11 51 27t44.5 37t31.5 46.5t12 56.5q0 46 -19 78t-50 52t-70 29t-78 9q-38 0 -78 -9.5t-72.5 -29.5t-53.5 -52t-21 -77q0 -34 10.5 -60t28.5 -46.5t42.5 -36.5t52.5 -29q-32 -11 -61 -27t-51.5 -38.5t-36 -51.5 t-13.5 -65q0 -49 23 -84.5t59 -58t80 -33t86 -10.5q44 0 88.5 10.5t80 33t57.5 59t22 87.5zM439 530q0 -29 -14.5 -51t-36.5 -38.5t-48 -28.5t-50 -19q-24 7 -49.5 19.5t-46.5 30t-34.5 40t-13.5 50.5t14.5 47.5t36.5 32.5t48 19t49 6q25 0 50.5 -6t46.5 -19t34.5 -33.5 t13.5 -49.5zM461 176q0 -34 -16 -57t-40.5 -37.5t-54.5 -21t-58 -6.5q-29 0 -60 7t-56.5 22t-42 39t-16.5 59q0 33 16.5 57t41 42t54 29.5t56.5 18.5q27 -8 57.5 -20.5t57 -31t44 -43t17.5 -57.5z" />
<glyph unicode="9" horiz-adv-x="578" d="M528 369q0 61 -11.5 120.5t-40 106.5t-76 75.5t-120.5 28.5q-50 0 -92.5 -16.5t-73.5 -46t-48.5 -71t-17.5 -92.5q0 -50 15 -91.5t43.5 -71.5t68.5 -46.5t91 -16.5q61 0 110 27.5t78 82.5q0 -54 -10 -108t-34.5 -97t-67 -70t-107.5 -27q-20 0 -46.5 4t-49.5 9t-39 9 l-16 4l-17 -45l15.5 -7t40 -15.5t54 -15.5t57.5 -7q83 0 139.5 32t91 84.5t49 120.5t14.5 140zM442 460q0 -32 -14.5 -59t-38 -47t-52.5 -31t-59 -11q-36 0 -64.5 11.5t-49 32.5t-31 50.5t-10.5 64.5q0 34 11.5 64t32 52.5t49.5 35t64 12.5t65.5 -11.5t53.5 -37.5 q10 -11 18 -26.5t13.5 -33t8.5 -35t3 -31.5z" />
<glyph unicode=":" horiz-adv-x="289" d="M195 410v98h-96v-98h96zM195 0v98h-96v-98h96z" />
<glyph unicode=";" horiz-adv-x="289" d="M195 410v98h-96v-98h96zM205 71v14q0 7 -1 15h-97q0 -58 -9.5 -116.5t-23.5 -114.5l39 -28q16 19 32.5 47.5t29.5 60.5t21.5 64t8.5 58z" />
<glyph unicode="&#x3c;" horiz-adv-x="600" d="M550 30v64l-414 177l414 177v64l-499 -218v-46z" />
<glyph unicode="=" horiz-adv-x="600" d="M555 336v68h-511v-68h511zM555 138v68h-511v-68h511z" />
<glyph unicode="&#x3e;" horiz-adv-x="600" d="M550 248v46l-499 218v-64l414 -177l-414 -177v-64z" />
<glyph unicode="?" horiz-adv-x="520" d="M462 520q0 45 -16.5 79.5t-45 57.5t-66 34.5t-79.5 11.5q-33 0 -66.5 -11t-60.5 -24.5t-44.5 -24.5l-17.5 -11l25 -51l15.5 9t39.5 19.5t51.5 19.5t51.5 9q57 0 96.5 -30.5t39.5 -91.5q0 -36 -13.5 -60t-33.5 -43.5t-43 -37t-43 -39t-33.5 -51t-13.5 -71.5v-45h68 q0 28 0.5 53.5t15.5 50.5q21 36 50.5 57.5t57 45t46.5 55.5t19 89zM286 0v90h-90v-90h90z" />
<glyph unicode="@" horiz-adv-x="800" d="M759 303q0 69 -30 123.5t-79 91.5t-110.5 56.5t-124.5 19.5q-73 0 -141.5 -27t-121 -74.5t-84 -112.5t-31.5 -141q0 -80 31.5 -146.5t84.5 -114t123 -73.5t147 -26q28 0 61.5 7t66 20.5t59.5 33.5t42 45l-42 25q-16 -19 -39.5 -32.5t-50.5 -22t-54.5 -12.5t-51.5 -4 q-62 0 -117.5 23t-98.5 62.5t-68 93.5t-25 117q0 65 25 120t67.5 94.5t99 62t119.5 22.5q49 0 98.5 -15t90 -44t66 -71.5t25.5 -97.5q0 -42 -11.5 -80t-37.5 -72q-8 -10 -18 -21.5t-21.5 -21t-25 -15.5t-27.5 -6q-15 0 -24 9t-9 23q0 8 6 29.5t14.5 50t19.5 60t21.5 61 t18.5 53t12 34.5h-69l-19 -56q-10 33 -37.5 54.5t-62.5 21.5q-50 0 -91 -21.5t-70 -57t-45.5 -80.5t-16.5 -92q0 -30 9 -57t26.5 -46.5t42.5 -31t57 -11.5t64 16.5t52 42.5q9 -29 31.5 -45t53.5 -16q49 0 89.5 26t69.5 66t45 88t16 92zM496 289q0 -28 -10.5 -62t-29.5 -64 t-46 -50.5t-59 -20.5q-19 0 -32.5 8.5t-22.5 21.5t-13.5 29.5t-4.5 32.5q0 30 11 63t31 61.5t47.5 47t60.5 18.5q18 0 30.5 -7.5t21 -19.5t12.5 -27t4 -31z" />
<glyph unicode="A" horiz-adv-x="615" d="M605 0l-250 692h-98l-255 -692h79l68 193h305l72 -193h79zM433 255h-259l130 359z" />
<glyph unicode="B" horiz-adv-x="587" d="M531 189q0 72 -39.5 116.5t-108.5 59.5q60 15 93 52t33 102q0 48 -16.5 81t-45 53.5t-66.5 29.5t-81 9h-220v-692h213q45 0 88 10.5t76 33t53.5 58.5t20.5 87zM433 519q0 -35 -12.5 -59t-34 -39t-50 -21.5t-59.5 -6.5h-119v234h134q26 0 51.5 -5.5t45.5 -18t32 -33.5 t12 -51zM453 193q0 -37 -14.5 -61t-38.5 -38.5t-54.5 -20.5t-61.5 -6h-127v263h127q34 0 65 -7t54 -22.5t36.5 -42t13.5 -65.5z" />
<glyph unicode="C" horiz-adv-x="644" d="M573 613l-19.5 14t-49.5 31t-66.5 31t-69.5 14q-79 0 -138.5 -28.5t-99.5 -77.5t-60.5 -114.5t-20.5 -138.5t20.5 -137.5t61 -113t100 -76.5t137.5 -28q34 0 68.5 10t62.5 21.5t45 21.5l17 10l-29 51l-15.5 -7.5t-40 -17t-53.5 -17t-56 -7.5q-64 0 -109 25t-73.5 66 t-41.5 94t-13 109t13.5 108t42.5 92.5t74 65t108 24.5q27 0 56 -10.5t52.5 -22.5t38.5 -22.5l15 -10.5z" />
<glyph unicode="D" horiz-adv-x="664" d="M609 350q0 76 -21 139t-62 108t-101.5 70t-139.5 25h-203v-692h184q82 0 145.5 24.5t107.5 69.5t67 110t23 146zM531 343q0 -132 -70 -204t-203 -72h-99v559h115q68 0 117 -20t80 -57t45.5 -89.5t14.5 -116.5z" />
<glyph unicode="E" horiz-adv-x="529" d="M484 0v67h-321v260h267v65h-267v233h309v67h-386v-692h398z" />
<glyph unicode="F" horiz-adv-x="462" d="M456 625v67h-377v-692h77v327h265l-1 65h-264v233h300z" />
<glyph unicode="G" horiz-adv-x="692" d="M618 -7v369h-244v-66h166v-146q0 -9 -6 -19t-14 -19.5t-17 -18t-16 -12.5q-23 -15 -50.5 -21t-54.5 -6q-65 0 -111.5 23.5t-76.5 63.5t-44 92.5t-14 111.5q0 57 14 110t43 93.5t75 65t110 24.5q28 0 62 -9t64 -20.5t50 -20.5l20 -9l26 51l-22 11.5t-54.5 25t-70.5 25 t-70 11.5q-79 0 -140 -27.5t-102.5 -76t-63 -113.5t-21.5 -140q0 -77 20.5 -142.5t61 -113t101.5 -74.5t142 -27q29 0 51.5 2.5t42 9t38.5 18.5t41 31l18 -57h46z" />
<glyph unicode="H" horiz-adv-x="664" d="M576 0v692h-77v-297h-337v297h-77v-692h77v327h337v-327h77z" />
<glyph unicode="I" horiz-adv-x="241" d="M159 0v692h-78v-692h78z" />
<glyph unicode="J" horiz-adv-x="366" d="M287 194v498h-77v-503q0 -61 -24.5 -97.5t-90.5 -36.5q-19 0 -31 -2t-29 6l-19 -58q22 -6 43 -10t44 -4q48 0 83 15.5t57.5 43t33 65.5t10.5 83z" />
<glyph unicode="K" horiz-adv-x="615" d="M612 0l-305 406l265 286h-93l-311 -355v355h-77v-692h77v266l77 87l273 -353h94z" />
<glyph unicode="L" horiz-adv-x="471" d="M458 0v67h-300v625h-77v-692h377z" />
<glyph unicode="M" horiz-adv-x="855" d="M774 0v692h-112l-230 -582l-232 582h-117v-692h70v622l246 -622h59l240 622v-622h76z" />
<glyph unicode="N" horiz-adv-x="664" d="M589 0v692h-70v-589l-341 589h-98v-692h70v603l351 -603h88z" />
<glyph unicode="O" horiz-adv-x="692" d="M641 346q0 69 -17.5 133.5t-53.5 114t-92 79.5t-133 30t-133 -30t-92 -79.5t-53.5 -114t-17.5 -133.5t17.5 -133.5t53.5 -114t92 -79.5t133 -30t133 30t92 79.5t53.5 114t17.5 133.5zM562 346q0 -50 -12 -102t-38 -94t-67.5 -69t-99.5 -27q-59 0 -100 27t-67 69t-38 94 t-12 102t12 102t38 94t67 69t100 27t100 -27t67 -69t38 -94t12 -102z" />
<glyph unicode="P" horiz-adv-x="529" d="M502 486q0 103 -60 154.5t-159 51.5h-208v-692h77v290h129q45 0 85 12.5t70.5 37.5t48 61.5t17.5 84.5zM425 494q0 -38 -12.5 -64t-34.5 -42.5t-52 -24t-64 -7.5h-110v270h135q63 0 100.5 -33.5t37.5 -98.5z" />
<glyph unicode="Q" horiz-adv-x="692" d="M641 346q0 69 -17.5 133.5t-53.5 114t-92 79.5t-133 30t-133 -30t-92 -79.5t-53.5 -114t-17.5 -133.5t17.5 -133.5t53.5 -114t92 -79.5t133 -30t133 30t92 79.5t53.5 114t17.5 133.5zM562 346q0 -50 -12 -102t-38 -94t-67.5 -69t-99.5 -27q-59 0 -100 27t-67 69t-38 94 t-12 102t12 102t38 94t67 69t100 27t100 -27t67 -69t38 -94t12 -102zM601 -87l-259 46l-6 -50l255 -48z" />
<glyph unicode="R" horiz-adv-x="587" d="M549 0q-19 43 -37.5 87.5t-38.5 87.5t-44 84t-54 78q66 15 105 59t39 113q0 48 -17 82.5t-46 57t-67.5 33t-82.5 10.5h-222v-692h77v313h137q17 -11 34.5 -34.5t34 -53t31.5 -62.5t28 -64t23.5 -57t17.5 -42h82zM442 511q0 -36 -13 -61t-35 -41t-51 -23.5t-61 -7.5h-121 v247h132q30 0 57 -5t47.5 -17.5t32.5 -35t12 -56.5z" />
<glyph unicode="S" horiz-adv-x="559" d="M509 183q0 63 -27 101t-68 61.5t-88 38t-88 31.5t-68 41.5t-27 67.5q0 31 13 52.5t34 35.5t47 20.5t53 6.5q21 0 50.5 -9t56 -19.5t45.5 -19.5l19 -9l22 56l-19 10t-47.5 22.5t-62 22.5t-62.5 10q-41 0 -81 -11t-72 -33.5t-52 -56.5t-20 -80q0 -59 27 -95t67.5 -59 t87.5 -38.5t87.5 -33.5t67.5 -44t27 -70q0 -32 -14.5 -56t-37 -39.5t-51 -23.5t-56.5 -8q-24 0 -57.5 12t-63.5 26.5t-51 26.5l-21 12l-28 -52l21.5 -14t53.5 -31.5t70.5 -31.5t71.5 -14q43 0 86.5 12t77.5 36t55.5 60.5t21.5 85.5z" />
<glyph unicode="T" horiz-adv-x="500" d="M490 625v67h-479v-67h202v-625h77v625h200z" />
<glyph unicode="U" horiz-adv-x="654" d="M571 236v456h-70v-452q0 -84 -43 -134t-130 -50q-91 0 -130.5 49.5t-39.5 136.5v450h-77v-453q0 -119 62.5 -184.5t183.5 -65.5q116 0 180 66t64 181z" />
<glyph unicode="V" horiz-adv-x="586" d="M582 692h-71l-213 -598l-209 598h-81l248 -692h77z" />
<glyph unicode="W" horiz-adv-x="883" d="M876 692h-70l-154 -593l-166 593h-77l-163 -590l-157 590h-79l188 -692h85l161 579l164 -579h84z" />
<glyph unicode="X" horiz-adv-x="576" d="M572 0l-237 369l213 323h-78l-175 -268l-174 268h-88l215 -331l-241 -361h80l202 304l192 -304h91z" />
<glyph unicode="Y" horiz-adv-x="586" d="M578 692h-76l-201 -329l-199 329h-91l246 -398v-294h77v292z" />
<glyph unicode="Z" horiz-adv-x="520" d="M487 0v67h-383l371 566v59h-443v-66h357l-370 -559v-67h468z" />
<glyph unicode="[" horiz-adv-x="289" d="M237 -155v49h-104v779h104v49h-116q-14 0 -27 -0.5t-27 -0.5v-875q14 0 27 -0.5t27 -0.5h116z" />
<glyph unicode="\" horiz-adv-x="397" d="M344 -32l-342 735h-67l342 -735h67z" />
<glyph unicode="]" horiz-adv-x="289" d="M225 -154v875q-14 0 -26.5 0.5t-26.5 0.5h-117v-49h104v-779h-104v-49h117q14 0 26.5 0.5t26.5 0.5z" />
<glyph unicode="^" horiz-adv-x="600" d="M522 261l-196 431h-54l-197 -431h67l157 348l156 -348h67z" />
<glyph unicode="_" horiz-adv-x="500" d="M503 -206v56h-503v-56h503z" />
<glyph unicode="`" horiz-adv-x="299" d="M236 579l-145 132l-58 -31l170 -120z" />
<glyph unicode="a" horiz-adv-x="520" d="M465 0q-3 7 -4.5 18t-2 23t-1 23t-0.5 19v261q0 94 -47 135.5t-138 41.5q-23 0 -55 -6t-61.5 -12.5t-50.5 -12.5l-21 -6l16 -46l18 4t43.5 9t54 9t50.5 4q59 0 90.5 -28.5t31.5 -88.5v-34q-30 -1 -67 -2t-75 -5t-74 -14t-63.5 -28.5t-44.5 -48.5t-17 -75q0 -39 14 -67.5 t37.5 -47t55 -28t67.5 -9.5q57 0 99.5 26t71.5 74l4 -88h69zM388 214q0 -35 -10.5 -65.5t-31 -53t-49 -36t-64.5 -13.5q-46 0 -78 22t-32 72q0 38 20.5 61t51 35.5t65.5 16.5t64 4h64v-43z" />
<glyph unicode="b" d="M502 262q0 50 -11.5 96.5t-36 82.5t-64 58t-96.5 22q-54 0 -92 -27t-64 -72v297h-70v-719h50l15 85q29 -46 64.5 -71t92.5 -25q58 0 98.5 24t65.5 62.5t36.5 87.5t11.5 99zM426 252q0 -34 -6.5 -70t-22.5 -66t-43 -49t-68 -19q-39 0 -67 18t-46 46t-26.5 62.5t-8.5 68.5 v41q0 32 9.5 64t28 57.5t46 41t63.5 15.5q42 0 69.5 -20t43.5 -51t22 -68t6 -71z" />
<glyph unicode="c" horiz-adv-x="462" d="M450 26l-16 46l-18 -4t-43.5 -9t-54 -9t-50.5 -4q-45 0 -74.5 18.5t-47.5 48.5t-25.5 68t-7.5 77q0 38 9.5 74.5t29.5 65t51 46t74 17.5q18 0 40 -3.5t41.5 -8t32.5 -8l13 -3.5l18 47l-13.5 5.5t-34.5 12.5t-47.5 12.5t-52.5 5.5q-59 0 -103.5 -21t-74 -57t-44.5 -84.5 t-15 -103.5t14 -103.5t43 -84.5t73 -57t103 -21q23 0 54 6t59 12.5t47.5 12.5z" />
<glyph unicode="d" d="M479 0v719h-70v-290q-27 44 -64 68t-90 24q-57 0 -97.5 -22.5t-65.5 -59.5t-36.5 -85t-11.5 -98q0 -51 11.5 -99t37 -85.5t65.5 -60t98 -22.5q53 0 91.5 26.5t64.5 71.5v-87h67zM408 234q0 -33 -9 -66t-27.5 -59.5t-46 -43.5t-64.5 -17q-43 0 -70.5 20.5t-43 51.5 t-21.5 68.5t-6 72.5q0 33 7 69t23 65.5t43 48.5t68 19q39 0 67 -16t45.5 -42.5t26 -59.5t8.5 -67v-44z" />
<glyph unicode="e" horiz-adv-x="520" d="M477 242q0 54 -10 104t-34.5 89t-65.5 62.5t-104 23.5q-56 0 -98 -22.5t-70 -59.5t-42 -85t-14 -99q0 -57 13.5 -105.5t42 -84t72.5 -56t105 -20.5q23 0 53.5 6t58.5 12.5t47 12.5l19 6l-16 46l-18 -4t-43.5 -9t-54 -9t-50.5 -4q-44 0 -72.5 16t-46 43t-25 62.5 t-9.5 74.5h362zM400 298h-284q4 32 15 62t29.5 53t45 37t62.5 14t61 -14t40.5 -37.5t22.5 -53.5t8 -61z" />
<glyph unicode="f" horiz-adv-x="317" d="M321 721q-34 10 -74 10q-51 0 -78.5 -20.5t-40 -52.5t-15 -71.5t-2.5 -77.5h-97v-58h97v-451h70v451h117v58h-117q0 25 -0.5 53.5t6 53t23.5 41t53 16.5q17 0 28 -2.5t27 -7.5z" />
<glyph unicode="g" horiz-adv-x="529" d="M506 463v56h-224q-7 1 -14 1.5t-15 0.5q-40 0 -75.5 -12.5t-62.5 -35.5t-42.5 -56.5t-15.5 -75.5q0 -43 19.5 -81.5t54.5 -64.5q-26 -11 -47 -32t-21 -52q0 -55 50 -78q-18 -8 -34 -17t-28 -21t-19 -28t-7 -38q0 -44 24.5 -70.5t61 -40.5t77.5 -18t74 -4q34 0 76 5t79 20 t61.5 42.5t24.5 72.5q0 49 -27.5 75t-68.5 38.5t-89 16t-89 7.5t-68.5 12.5t-27.5 31.5q0 22 18.5 33t35.5 16q15 -6 31 -8t32 -2q42 0 77.5 12.5t62 36t41.5 57.5t15 78q0 37 -13.5 68.5t-36.5 54.5h110zM373 337q0 -58 -31 -90.5t-90 -32.5q-56 0 -88.5 34t-32.5 89 t33 91.5t90 36.5h9t9 -1v-1h5q46 -8 71 -43t25 -83zM432 -66q0 -27 -19.5 -43t-46.5 -24.5t-56.5 -11t-48.5 -2.5t-47 2.5t-54.5 10.5t-45.5 24t-19 43q0 17 7.5 29.5t19.5 21.5t26.5 16t28.5 13q13 -3 37 -4.5t52.5 -3.5t58 -5.5t53.5 -11.5t39 -21t15 -33z" />
<glyph unicode="h" d="M472 0v327q0 42 -9.5 78t-30.5 61.5t-53.5 40t-77.5 14.5q-60 0 -96 -28.5t-60 -79.5v306h-70v-719h70v284q0 34 9 66t27 57t46 39.5t66 14.5q28 0 48.5 -10.5t34 -27.5t20 -40.5t6.5 -48.5v-334h70z" />
<glyph unicode="i" horiz-adv-x="231" d="M153 622v86h-74v-86h74zM150 0v509h-70v-509h70z" />
<glyph unicode="j" horiz-adv-x="221" d="M146 622v86h-74v-86h74zM143 -37v546h-70v-537q0 -23 -1.5 -43t-9 -35t-23 -24t-42.5 -9q-11 0 -24.5 2.5t-24.5 4.5v-59q17 -2 33 -4.5t33 -2.5q38 0 63 12.5t39.5 34t20.5 51t6 63.5z" />
<glyph unicode="k" horiz-adv-x="500" d="M487 0l-230 306l206 203h-83l-233 -233v443h-70v-719h69q4 53 2.5 105.5t-1.5 105.5l59 52l196 -263h85z" />
<glyph unicode="l" horiz-adv-x="231" d="M150 0v719h-70v-719h70z" />
<glyph unicode="m" horiz-adv-x="827" d="M755 0v327q0 40 -8.5 75.5t-27.5 61.5t-49.5 41.5t-75.5 15.5q-58 0 -99.5 -32t-61.5 -85q-11 55 -46.5 86t-92.5 31q-59 0 -95 -28.5t-60 -79.5v96h-65v-509h70v291q0 31 7 61.5t23 54.5t40.5 39t60.5 15q29 0 49 -11t32 -29.5t17.5 -42.5t5.5 -49v-329h70v293 q0 30 7 60t23 54t41 39t60 15q28 0 48 -11.5t33 -30t18.5 -42t5.5 -48.5v-329h70z" />
<glyph unicode="n" d="M474 0v327q0 43 -9.5 78.5t-30.5 61t-53.5 40t-78.5 14.5q-60 0 -98.5 -28t-64.5 -80v96h-65v-509h70v284q0 34 9 66t27.5 56.5t46.5 39.5t66 15q28 0 48.5 -10t34.5 -27.5t21 -40.5t7 -49v-334h70z" />
<glyph unicode="o" d="M507 255q0 54 -14.5 102.5t-44 84.5t-73 57.5t-101.5 21.5q-59 0 -103 -21t-73 -57t-43.5 -84.5t-14.5 -103.5q0 -54 15 -102.5t44 -84.5t73 -57.5t102 -21.5t102 21t73 57.5t43.5 85t14.5 102.5zM430 255q0 -37 -8 -74t-26.5 -66.5t-48.5 -48t-73 -18.5t-73 18.5 t-48.5 48t-27 66.5t-8.5 74t8 74.5t27 66.5t48.5 47.5t73.5 18.5q43 0 73 -18.5t48.5 -48t26.5 -66.5t8 -74z" />
<glyph unicode="p" d="M510 254q0 50 -11 98t-36 85.5t-64.5 60.5t-97.5 23q-57 0 -96 -30t-65 -78v96h-64v-697h70v271q23 -47 64 -70.5t92 -23.5q55 0 94.5 23.5t65 61t37 85t11.5 95.5zM432 251q0 -35 -6.5 -71t-22.5 -65t-44 -47.5t-70 -18.5q-35 0 -61.5 16t-44.5 41.5t-27.5 57t-9.5 62.5 v66q0 30 10 60t29 54t45.5 39t58.5 15q42 0 70 -19.5t44 -50.5t22.5 -68t6.5 -71z" />
<glyph unicode="q" d="M479 -188v697h-51l-16 -85q-26 45 -63.5 71t-91.5 26q-59 0 -100 -22.5t-66 -60t-36 -85.5t-11 -100q0 -50 11.5 -97.5t37 -84.5t65 -59.5t96.5 -22.5t95.5 28.5t59.5 79.5v-285h70zM408 240q0 -31 -8.5 -64.5t-26.5 -61.5t-44.5 -46.5t-62.5 -18.5q-44 0 -72 19t-44 49 t-22.5 66.5t-6.5 72.5q0 35 6.5 71.5t22.5 66.5t43.5 49t70.5 19q40 0 67.5 -18.5t44.5 -47.5t24.5 -64.5t7.5 -68.5v-23z" />
<glyph unicode="r" horiz-adv-x="327" d="M320 447v70q-10 1 -20.5 2.5t-20.5 1.5q-28 0 -50.5 -11t-40 -28.5t-30 -40.5t-19.5 -47v115h-63v-509h70v250q0 29 6.5 64t22 65t40.5 50.5t61 20.5q11 0 22 -1z" />
<glyph unicode="s" horiz-adv-x="453" d="M412 141q0 47 -21.5 75.5t-53.5 45.5t-70 27t-70 21.5t-53.5 28t-21.5 45.5q0 24 9.5 39t24.5 23.5t34 12t39 3.5q18 0 41.5 -4t44 -8.5t35 -8l14.5 -3.5l18 47l-14 5.5t-36.5 12.5t-49.5 12.5t-53 5.5q-33 0 -65 -8t-57 -25t-40.5 -43.5t-15.5 -64.5q0 -46 21 -72.5 t53 -43t69 -26.5t69 -22t53 -30.5t21 -51.5q0 -23 -12.5 -39.5t-32 -27t-42 -15t-41.5 -4.5q-22 0 -49.5 3.5t-51.5 8t-40.5 8.5l-16.5 4l-16 -46l19.5 -6t47.5 -12.5t59 -12.5t54 -6q36 0 71 8.5t63 26.5t45.5 47t17.5 70z" />
<glyph unicode="t" horiz-adv-x="327" d="M311 -1l-2 57q-17 -2 -32 -5.5t-32 -3.5q-39 0 -54 25t-15 60v321h115v58h-115v140l-70 -15v-125h-95v-58h95v-305q0 -35 5 -64t19.5 -50t39.5 -33t64 -12q20 0 38.5 3t38.5 7z" />
<glyph unicode="u" d="M471 0v509h-70v-283q0 -32 -9 -63.5t-27 -56.5t-45 -40.5t-63 -15.5q-32 0 -53.5 11.5t-34.5 31t-19 44.5t-6 53v319h-70v-319q0 -44 9.5 -81t30 -63.5t53.5 -41.5t81 -15q55 0 95.5 29.5t63.5 78.5l1 -97h63z" />
<glyph unicode="v" horiz-adv-x="442" d="M439 509h-69l-144 -428l-142 428h-77l176 -509h78z" />
<glyph unicode="w" horiz-adv-x="720" d="M711 509h-62l-130 -413l-125 413h-68l-124 -413l-125 413h-73l159 -509h71l123 412l126 -412h71z" />
<glyph unicode="x" horiz-adv-x="442" d="M437 0l-175 275l154 234h-74l-118 -182l-115 182h-83l158 -242l-176 -267h75l139 213l132 -213h83z" />
<glyph unicode="y" horiz-adv-x="432" d="M431 509h-67l-144 -407l-140 407h-74l179 -507q-6 -22 -13.5 -47t-19.5 -46t-30.5 -35t-46.5 -14q-11 0 -24.5 3t-24.5 5l-3 -59q35 -8 67 -8q29 0 51 12t38.5 31.5t28 43.5t19.5 48z" />
<glyph unicode="z" horiz-adv-x="432" d="M408 0v58h-294l293 402v49h-361v-58h274l-290 -393v-58h378z" />
<glyph unicode="{" horiz-adv-x="289" d="M270 -155v50q-10 0 -20.5 -0.5t-20.5 0t-19 4.5t-16 13q-8 11 -10 28.5t-2 31.5v163q0 48 -15.5 86.5t-62.5 61.5q46 24 62 62t16 87v163q0 11 1 24.5t5.5 25t13.5 19.5t24 8h44v50h-51q-41 0 -63.5 -17t-32.5 -44.5t-10.5 -63t1 -73t2.5 -74t-5.5 -66t-23.5 -49 t-51 -23.5v-57q34 -4 51 -23.5t23.5 -49t6 -66t-2.5 -74t-1 -73t11 -63t32 -44.5t63 -17h51z" />
<glyph unicode="|" horiz-adv-x="241" d="M152 -11v735h-64v-735h64z" />
<glyph unicode="}" horiz-adv-x="289" d="M253 255v57q-34 4 -51.5 23.5t-23.5 49t-5.5 66t2.5 74t1 73t-11 63t-32 44.5t-63 17h-51v-50q20 0 41 0.5t35 -17.5q8 -11 10 -29t2 -31v-163q0 -50 15.5 -87.5t62.5 -61.5q-47 -23 -62.5 -61t-15.5 -87v-163q0 -11 -1.5 -24.5t-6 -25t-13.5 -19.5t-24 -8h-43v-50h51 q41 0 63 17t32 44.5t11 63t-1 73t-2.5 74t6 66t23.5 49t51 23.5z" />
<glyph unicode="~" horiz-adv-x="600" d="M536 312l-53 25q-3 -13 -8.5 -27t-14 -26t-20 -19.5t-27.5 -7.5q-21 0 -48 14t-57 30.5t-62.5 30.5t-63.5 14q-24 0 -44.5 -11t-35.5 -29t-25 -40t-14 -44l52 -25q3 13 8.5 27t14 26t20 19.5t27.5 7.5q21 0 48.5 -14t58 -30.5t62.5 -30.5t62 -14q25 0 45.5 11t35.5 29 t25 40t14 44z" />
<glyph unicode="&#xa1;" horiz-adv-x="345" d="M215 420v90h-90v-90h90zM220 -183q-5 132 -11 262t-14 262h-49q-8 -131 -14 -261.5t-10 -262.5h98z" />
<glyph unicode="&#xa2;" horiz-adv-x="578" d="M490 86l-16 46l-17.5 -5t-43.5 -10.5t-55.5 -8.5t-53.5 1q-3 0 -2 0q2 0 5 0.5t4.5 1t-1.5 0.5l61 379q16 -5 40 -14l40 -15t18 -7l16 45q-2 1 -16 10t-39 21.5t-49 18.5l16 101h-54l-15 -95q-56 -1 -98.5 -20.5t-71.5 -53.5t-43.5 -80t-14.5 -99q0 -82 34 -146.5 t114 -94.5l-20 -122h54l20 110q26 -5 58.5 0.5t61.5 13.5t48.5 15.5zM318 494l-60 -367q-47 30 -64.5 77t-17.5 101q0 35 8 67.5t25 58t44 42t65 21.5z" />
<glyph unicode="&#xa3;" horiz-adv-x="578" d="M542 54l-32 52q-18 -15 -42.5 -22.5t-51 -11.5t-53.5 -4.5t-49 -0.5h-89q20 33 29.5 70.5t9.5 76.5q0 30 -0.5 60.5t-1.5 60.5h154v56h-158q-2 26 -3.5 51.5t-1.5 51.5q0 30 8 55.5t24 45t39.5 30.5t55.5 11t56 -11.5t47 -34.5l34 54q-31 29 -66 42.5t-77 13.5 q-45 0 -82 -17t-63 -46t-40.5 -68t-14.5 -82q0 -24 1 -48t3 -48h-96v-56h100q2 -12 3.5 -25.5t1.5 -25.5q0 -31 0.5 -61t-4 -58t-17.5 -52.5t-39 -45.5l-91 1v-68h331q23 0 47 1.5t47 7.5t44 16.5t37 28.5z" />
<glyph unicode="&#xa4;" horiz-adv-x="644" d="M573 613l-19.5 14t-49.5 31t-66.5 31t-69.5 14q-60 0 -109.5 -17t-87 -47.5t-64 -72.5t-40.5 -92h-63v-68h49q-2 -15 -3 -30.5t-1 -31.5q0 -17 1.5 -34t3.5 -34h-50v-68h65q15 -48 42 -88t64.5 -69.5t85.5 -45.5t107 -16q34 0 68.5 10t62.5 21.5t45 21.5l17 10l-29 51 l-15.5 -7.5t-40 -17t-53.5 -17t-56 -7.5q-43 0 -77 11.5t-60.5 32t-45.5 49t-31 61.5h362v68h-380q-2 17 -3.5 35.5t-1.5 36.5q0 15 1 29.5t3 28.5h381v68h-366q12 35 31 65t46 52t62.5 34.5t79.5 12.5q27 0 56 -10.5t52.5 -22.5t38.5 -22.5l15 -10.5z" />
<glyph unicode="&#x20ac;" horiz-adv-x="644" d="M573 613l-19.5 14t-49.5 31t-66.5 31t-69.5 14q-60 0 -109.5 -17t-87 -47.5t-64 -72.5t-40.5 -92h-63v-68h49q-2 -15 -3 -30.5t-1 -31.5q0 -17 1.5 -34t3.5 -34h-50v-68h65q15 -48 42 -88t64.5 -69.5t85.5 -45.5t107 -16q34 0 68.5 10t62.5 21.5t45 21.5l17 10l-29 51 l-15.5 -7.5t-40 -17t-53.5 -17t-56 -7.5q-43 0 -77 11.5t-60.5 32t-45.5 49t-31 61.5h362v68h-380q-2 17 -3.5 35.5t-1.5 36.5q0 15 1 29.5t3 28.5h381v68h-366q12 35 31 65t46 52t62.5 34.5t79.5 12.5q27 0 56 -10.5t52.5 -22.5t38.5 -22.5l15 -10.5z" />
<glyph unicode="&#xa5;" horiz-adv-x="578" d="M554 692h-75l-186 -327l-181 327h-89l174 -304h-121v-54h152l22 -39v-41h-174v-54h174v-200h77v200h173v54h-173v39l23 41h150v54h-119z" />
<glyph unicode="&#xa6;" horiz-adv-x="241" d="M152 448v276h-64v-276h64zM152 -11v276h-64v-276h64z" />
<glyph unicode="&#xa7;" horiz-adv-x="578" d="M490 282q0 44 -23.5 73t-59.5 49.5t-77 35t-77 31t-59.5 37.5t-23.5 53q0 24 11.5 40.5t29.5 26.5t40 14.5t42 4.5q17 0 41 -7t46 -16t37.5 -16l15.5 -7l29 45l-18.5 9t-45.5 19.5t-57.5 19.5t-54.5 9q-35 0 -69 -9t-60.5 -28t-42.5 -48t-16 -68q0 -42 23.5 -73.5 t59.5 -48.5q-42 -29 -69 -67t-27 -92q0 -44 23.5 -73t59.5 -49t77 -35t77 -31t59.5 -37t23.5 -54q0 -26 -14 -42.5t-34.5 -26.5t-44.5 -13.5t-45 -3.5q-18 0 -45.5 10t-53.5 22.5t-45 22.5l-19 10l-21 -44l18.5 -12.5t46 -27.5t60.5 -27t63 -10q37 2 74 10.5t66.5 26.5 t47.5 46t18 70t-23.5 73.5t-59.5 48.5q42 29 69 67t27 92zM420 262q0 -18 -7 -35t-18 -32t-26 -27t-30 -19l-115 46q-32 13 -50.5 35.5t-18.5 58.5q0 18 7 35t18 32t26 27t30 19l115 -45q33 -13 51 -36t18 -59z" />
<glyph unicode="&#xa8;" horiz-adv-x="309" d="M279 605v92h-88v-92h88zM116 605v92h-88v-92h88z" />
<glyph unicode="&#xa9;" horiz-adv-x="780" d="M749 349q0 75 -28.5 141t-77 114.5t-114.5 77t-141 28.5t-141 -28t-114.5 -77t-76.5 -115t-28 -141t28.5 -141t77 -114.5t114.5 -77t141 -28.5t141 28t114.5 77t76.5 115t28 141zM680 348q0 -61 -22.5 -115.5t-61.5 -95t-92.5 -64t-115.5 -23.5t-115 24t-92 65t-61.5 95 t-22.5 115t22.5 115.5t61.5 95t92.5 64t115.5 23.5t115 -24t92 -65t61.5 -95t22.5 -115zM577 279h-63q-9 -43 -36 -67.5t-72 -24.5q-36 0 -62.5 13t-44 35t-26 51.5t-8.5 62.5q0 32 8 61t25 50.5t42.5 34t60.5 12.5q19 0 38 -6t34.5 -17.5t26 -27.5t13.5 -37h63 q-11 69 -57.5 105.5t-115.5 36.5q-48 0 -86 -15.5t-65 -43.5t-41.5 -67t-14.5 -86q0 -46 15 -85.5t42 -68.5t65.5 -45.5t85.5 -16.5q33 0 62 11t51.5 30.5t37.5 46t22 58.5z" />
<glyph unicode="&#xaa;" horiz-adv-x="342" d="M310 388q-2 3 -3 10t-2 14.5t-1 14.5v11v156q0 60 -34 83.5t-90 23.5q-14 0 -35.5 -5t-41.5 -11.5t-34.5 -11.5l-14.5 -5l16 -32l11.5 4.5t28 10.5t34.5 10.5t32 4.5q35 0 58.5 -16t23.5 -54v-20q-26 -1 -65 -2t-75.5 -10t-62.5 -30t-26 -62q0 -25 10.5 -42t27 -28 t37.5 -16t42 -5q36 0 65.5 14.5t49.5 45.5l2 -53h47zM258 516q0 -45 -30 -72.5t-74 -27.5q-28 0 -51 11.5t-23 44.5q0 24 14.5 38t35.5 21t44.5 9t40.5 2h43v-26z" />
<glyph unicode="&#xab;" horiz-adv-x="480" d="M400 89l-95 174l95 174h-53l-112 -171v-6l112 -171h53zM248 89l-95 174l95 174h-53l-112 -171v-6l112 -171h53z" />
<glyph unicode="&#xac;" horiz-adv-x="600" d="M555 117v271h-511v-68h443v-203h68z" />
<glyph unicode="&#xae;" horiz-adv-x="780" d="M749 349q0 75 -28.5 141t-77 114.5t-114.5 77t-141 28.5t-141 -28t-114.5 -77t-76.5 -115t-28 -141t28.5 -141t77 -114.5t114.5 -77t141 -28.5t141 28t114.5 77t76.5 115t28 141zM680 348q0 -61 -22.5 -115.5t-61.5 -95t-92.5 -64t-115.5 -23.5t-115 24t-92 65t-61.5 95 t-22.5 115t22.5 115.5t61.5 95t92.5 64t115.5 23.5t115 -24t92 -65t61.5 -95t22.5 -115zM571 142l-123 184q55 3 86.5 30.5t31.5 85.5q0 30 -11 51t-29.5 33.5t-42.5 18t-51 5.5h-179v-408h64v184h65l115 -184h74zM501 443q0 -41 -23 -53.5t-59 -12.5h-102v123h100 q14 0 29 -2.5t27 -9t20 -17.5t8 -28z" />
<glyph unicode="&#xaf;" horiz-adv-x="339" d="M309 631v56h-280v-56h280z" />
<glyph unicode="&#xb0;" horiz-adv-x="400" d="M354 550q0 32 -12 60t-33 49t-49 33t-60 12t-60 -12t-49 -33t-33 -49t-12 -60t12 -60t33 -49t49 -33t60 -12t60 12t49 33t33 49t12 60zM299 550q0 -42 -28.5 -70.5t-70.5 -28.5t-70.5 28.5t-28.5 70.5t28.5 70.5t70.5 28.5t70.5 -28.5t28.5 -70.5z" />
<glyph unicode="&#xb1;" horiz-adv-x="692" d="M640 346q0 69 -17.5 133.5t-53.5 114t-92 79.5t-133 30t-133 -30t-92 -79.5t-53.5 -114t-17.5 -133.5t17.5 -133.5t53.5 -114t92 -79.5t133 -30q36 0 71 8q5 -27 13 -52.5t22.5 -45.5t37 -32t57.5 -12q22 0 42.5 6t39.5 17l-14 56q-14 -7 -29.5 -11.5t-32.5 -4.5 q-18 0 -30 8t-20 22.5t-12.5 33.5t-8.5 40q40 22 70.5 56t50 77t29.5 91.5t10 99.5zM561 346q0 -34 -5.5 -69t-17 -68t-30 -62.5t-43.5 -50.5q-6 23 -14.5 44t-23 36.5t-35.5 25t-51 9.5q-22 0 -42.5 -6t-39.5 -16l14 -57q14 8 29.5 12.5t31.5 4.5t27.5 -6.5t19.5 -18.5 t13 -27.5t9 -33.5q-27 -9 -59 -9q-59 0 -100 27t-67 69t-38 94t-12 102t12 102t38 94t67 69t100 27t100 -27t67 -69t38 -94t12 -102zM482 411q19 0 28.5 12t9.5 26q0 15 -9.5 27t-28.5 12h-3q-19 0 -28.5 -12t-9.5 -27t9.5 -27t28.5 -12zM234 449q0 16 -11 27.5t-27 11.5 t-27.5 -11.5t-11.5 -27.5t11.5 -27.5t27.5 -11.5t27.5 11.5t11.5 27.5h-1z" />
<glyph unicode="&#xb2;" horiz-adv-x="361" d="M326 278l-1 40h-235l136 116q16 14 33 31t31 37t22.5 41.5t8.5 44.5q0 31 -13 53t-33.5 36t-47 21t-53.5 7q-18 0 -39.5 -4.5t-41.5 -14t-35.5 -23.5t-21.5 -32l30 -27q4 15 16.5 26.5t28.5 19t33 11.5t31 4q18 0 34.5 -5.5t29 -15.5t20.5 -25t8 -34q0 -17 -7 -34.5 t-17.5 -33t-23.5 -29.5t-25 -25l-167 -145v-40h299z" />
<glyph unicode="&#xb3;" horiz-adv-x="361" d="M330 396q0 46 -29 72.5t-73 30.5q37 6 65 31.5t28 65.5q0 31 -13.5 51.5t-35 33.5t-48 18.5t-52.5 5.5q-17 0 -36.5 -3t-38 -10t-34.5 -17.5t-25 -25.5l26 -28q16 26 47 35.5t60 9.5q16 0 33.5 -4t32 -12t24 -21.5t9.5 -32.5q0 -32 -17.5 -48t-42.5 -23t-53 -7.5 t-50 -0.5v-40q21 0 50.5 -0.5t56.5 -7t45.5 -23t18.5 -48.5q0 -24 -11 -40.5t-28.5 -26t-38.5 -14t-41 -4.5q-13 0 -30 2.5t-33.5 8t-30 14.5t-19.5 22l-27 -28q8 -17 24.5 -28t37 -18t41 -10t37.5 -3q28 0 58.5 6.5t55.5 21t41 38t16 57.5z" />
<glyph unicode="&#xb4;" horiz-adv-x="299" d="M264 680l-58 31l-145 -132l33 -19z" />
<glyph unicode="&#xb5;" d="M471 0v509h-70v-283q0 -32 -9 -63.5t-27 -56.5t-45 -40.5t-63 -15.5q-32 0 -53.5 11.5t-34.5 31t-19 44.5t-6 53v319h-70v-697h71v225l10.5 -7.5t26.5 -16.5t35.5 -16.5t36.5 -7.5q55 -2 94 29t59 79l1 -97h63z" />
<glyph unicode="&#xb6;" horiz-adv-x="571" d="M511 660v32h-247q-49 0 -90 -15t-71 -43.5t-46.5 -68.5t-16.5 -89q0 -44 16 -81.5t43.5 -65.5t65 -44t81.5 -16v-416h64v780h109v-780h64v807h28z" />
<glyph unicode="&#xb7;" horiz-adv-x="289" d="M195 251v98h-96v-98h96z" />
<glyph unicode="&#x2219;" horiz-adv-x="289" d="M195 251v98h-96v-98h96z" />
<glyph unicode="&#xb8;" horiz-adv-x="270" d="M235 -107q0 14 -6.5 25.5t-16.5 20t-23 13.5t-26 5q-8 0 -15.5 -0.5t-15.5 -1.5l17 51h-31l-28 -83l22 2t22 1q16 0 30 -9.5t14 -26.5q0 -20 -17.5 -28t-33.5 -8q-21 0 -42 6t-39 17l-9 -35q23 -10 48 -16t50 -6q18 0 35.5 3.5t32 12t23.5 22.5t9 35z" />
<glyph unicode="&#xb9;" horiz-adv-x="361" d="M282 278l-21 19h-42l-1 403h-41q-54 -51 -120 -90l13 -40q26 17 51 35.5t48 39.5v-348h-44l-22 -19h179z" />
<glyph unicode="&#xba;" horiz-adv-x="361" d="M338 541q0 35 -11 64.5t-31 50.5t-49 33t-65 12q-74 0 -115.5 -44t-41.5 -116q0 -36 11 -65.5t31.5 -50.5t49.5 -32.5t65 -11.5q73 0 114.5 44t41.5 116zM286 541q0 -24 -6 -46.5t-19 -40t-32.5 -27.5t-46.5 -10t-47 10t-33 27t-19.5 39.5t-6.5 47.5t6.5 47.5t19.5 39.5 t33 27t47 10t46.5 -10t32.5 -27.5t19 -40t6 -46.5z" />
<glyph unicode="&#xbb;" horiz-adv-x="480" d="M396 260v6l-110 171h-53l93 -174l-93 -174h53zM244 260v6l-110 171h-53l93 -174l-93 -174h53z" />
<glyph unicode="&#xbc;" horiz-adv-x="866" d="M696 381v-245h-171zM682 422q0 -1 2.5 -7.5t5 -14l4.5 -13.5l2 -6zM816 98v38h-71v286h-63l-208 -286v-38h222v-98h49v98h71zM687 703h-64l-413 -714h63zM283 278l-21 19h-42l-1 403h-41q-54 -51 -120 -90l13 -40q26 17 51 35.5t48 39.5v-348h-44l-22 -19h179z" />
<glyph unicode="&#xbd;" horiz-adv-x="866" d="M825 0l-1 40h-235l136 116q16 14 33 31t31 37t22.5 41.5t8.5 44.5q0 31 -13 53t-33.5 36t-47 21t-53.5 7q-18 0 -39.5 -4.5t-41.5 -14t-35.5 -23.5t-21.5 -32l30 -27q4 15 16.5 26.5t28.5 19t33 11.5t31 4q18 0 34.5 -5.5t29 -15.5t20.5 -25t8 -34q0 -17 -7 -34.5 t-17.5 -33t-23.5 -29.5t-25 -25l-167 -145v-40h299zM658 703h-64l-413 -714h63zM278 278l-21 19h-42l-1 403h-41q-54 -51 -120 -90l13 -40q26 17 51 35.5t48 39.5v-348h-44l-22 -19h179z" />
<glyph unicode="&#xbe;" horiz-adv-x="866" d="M713 381v-245h-171zM699 422q0 -1 2.5 -7.5t5 -14l4.5 -13.5l2 -6zM833 98v38h-71v286h-63l-208 -286v-38h222v-98h49v98h71zM718 703h-64l-413 -714h63zM351 396q0 46 -29 72.5t-73 30.5q37 6 65 31.5t28 65.5q0 31 -13.5 51.5t-35 33.5t-48 18.5t-52.5 5.5 q-17 0 -36.5 -3t-38 -10t-34.5 -17.5t-25 -25.5l26 -28q16 26 47 35.5t60 9.5q16 0 33.5 -4t32 -12t24 -21.5t9.5 -32.5q0 -32 -17.5 -48t-42.5 -23t-53 -7.5t-50 -0.5v-40q21 0 50.5 -0.5t56.5 -7t45.5 -23t18.5 -48.5q0 -24 -11 -40.5t-28.5 -26t-38.5 -14t-41 -4.5 q-13 0 -30 2.5t-33.5 8t-30 14.5t-19.5 22l-27 -28q8 -17 24.5 -28t37 -18t41 -10t37.5 -3q28 0 58.5 6.5t55.5 21t41 38t16 57.5z" />
<glyph unicode="&#xbf;" horiz-adv-x="520" d="M327 421v90h-90v-90h90zM458 -121l-20 46l-17 -8t-42.5 -18t-54 -18t-50.5 -8q-57 0 -96.5 30.5t-39.5 91.5q0 35 13.5 59.5t33.5 44t43 37t43 39t33.5 50.5t13.5 72v45h-67q0 -28 -0.5 -53.5t-15.5 -50.5q-21 -36 -51 -58t-57.5 -45t-46.5 -55t-19 -89q0 -46 16.5 -80 t45 -57t66.5 -34.5t80 -11.5q28 0 61 11t61.5 24.5t47.5 24.5z" />
<glyph unicode="&#xc0;" horiz-adv-x="615" d="M391 750l-145 132l-58 -31l170 -120zM605 0l-250 692h-98l-255 -692h79l68 193h305l72 -193h79zM433 255h-259l130 359z" />
<glyph unicode="&#xc1;" horiz-adv-x="615" d="M420 851l-58 31l-145 -132l33 -19zM605 0l-250 692h-98l-255 -692h79l68 193h305l72 -193h79zM433 255h-259l130 359z" />
<glyph unicode="&#xc2;" horiz-adv-x="615" d="M459 748l-130 134h-40l-129 -134l59 -4l90 82l91 -82zM605 0l-250 692h-98l-255 -692h79l68 193h305l72 -193h79zM433 255h-259l130 359z" />
<glyph unicode="&#xc3;" horiz-adv-x="615" d="M463 847l-39 16q-11 -17 -22.5 -25.5t-32.5 -8.5q-16 0 -31 6t-29.5 12.5t-30 12.5t-33.5 6q-35 0 -58.5 -21.5t-37.5 -51.5l40 -16q10 17 22 25.5t32 8.5q16 0 31 -6t30 -12.5t30 -12.5t33 -6q35 0 58.5 21t37.5 52zM605 0l-250 692h-98l-255 -692h79l68 193h305 l72 -193h79zM433 255h-259l130 359z" />
<glyph unicode="&#xc4;" horiz-adv-x="615" d="M431 776v92h-88v-92h88zM268 776v92h-88v-92h88zM605 0l-250 692h-98l-255 -692h79l68 193h305l72 -193h79zM433 255h-259l130 359z" />
<glyph unicode="&#xc5;" horiz-adv-x="615" d="M399 821q0 19 -7.5 36t-20 29.5t-29.5 20t-36 7.5t-36 -7.5t-29.5 -20t-20 -29.5t-7.5 -36q0 -39 27 -66t66 -27q19 0 36 7.5t29.5 20t20 29.5t7.5 36zM358 821q0 -21 -15.5 -36.5t-36.5 -15.5q-23 0 -37.5 14.5t-14.5 37.5t14.5 37.5t37.5 14.5t37.5 -15t14.5 -37z M605 0l-250 692h-98l-255 -692h79l68 193h305l72 -193h79zM433 255h-259l130 359z" />
<glyph unicode="&#xc6;" horiz-adv-x="924" d="M875 0v67h-334v260h280v65h-280v233h322v67l-436 1l-422 -693h80l120 199h259v-199h411zM464 262h-222l222 364v-364z" />
<glyph unicode="&#xc7;" horiz-adv-x="644" d="M445 -107q0 14 -6.5 25.5t-16.5 20t-23 13.5t-26 5q-8 0 -15.5 -0.5t-15.5 -1.5l11 34h15q34 0 68.5 10t62.5 21.5t45 21.5l17 10l-29 51l-15.5 -7.5t-40 -17t-53.5 -17t-56 -7.5q-64 0 -109 25t-73.5 66t-41.5 94t-13 109t13.5 108t42.5 92.5t74 65t108 24.5 q27 0 56 -10.5t52.5 -22.5t38.5 -22.5l15 -10.5l43 41l-19.5 14t-49.5 31t-66.5 31t-69.5 14q-79 0 -138.5 -28.5t-99.5 -77.5t-60.5 -114.5t-20.5 -138.5q0 -68 18 -128t52.5 -107.5t85.5 -78t118 -38.5l-23 -69l22 2t22 1q16 0 30 -9.5t14 -26.5q0 -20 -17.5 -28t-33.5 -8 q-21 0 -42 6t-39 17l-9 -35q23 -10 48 -16t50 -6q18 0 35.5 3.5t32 12t23.5 22.5t9 35z" />
<glyph unicode="&#xc8;" horiz-adv-x="529" d="M350 750l-145 132l-58 -31l170 -120zM484 0v67h-321v260h267v65h-267v233h309v67h-386v-692h398z" />
<glyph unicode="&#xc9;" horiz-adv-x="529" d="M379 851l-58 31l-145 -132l33 -19zM484 0v67h-321v260h267v65h-267v233h309v67h-386v-692h398z" />
<glyph unicode="&#xca;" horiz-adv-x="529" d="M418 748l-130 134h-40l-129 -134l59 -4l90 82l91 -82zM484 0v67h-321v260h267v65h-267v233h309v67h-386v-692h398z" />
<glyph unicode="&#xcb;" horiz-adv-x="529" d="M390 776v92h-88v-92h88zM227 776v92h-88v-92h88zM484 0v67h-321v260h267v65h-267v233h309v67h-386v-692h398z" />
<glyph unicode="&#xcc;" horiz-adv-x="241" d="M205 750l-145 132l-58 -31l170 -120zM159 0v692h-78v-692h78z" />
<glyph unicode="&#xcd;" horiz-adv-x="241" d="M234 851l-58 31l-145 -132l33 -19zM159 0v692h-78v-692h78z" />
<glyph unicode="&#xce;" horiz-adv-x="241" d="M273 748l-130 134h-40l-129 -134l59 -4l90 82l91 -82zM159 0v692h-78v-692h78z" />
<glyph unicode="&#xcf;" horiz-adv-x="241" d="M245 776v92h-88v-92h88zM82 776v92h-88v-92h88zM159 0v692h-78v-692h78z" />
<glyph unicode="&#xd0;" horiz-adv-x="664" d="M609 350q0 78 -21 140.5t-62 107t-101.5 69t-139.5 25.5l-203 3v-309h-66v-62h66v-324h184q82 0 145.5 24.5t107.5 69.5t67 110t23 146zM531 343q0 -132 -70 -204t-203 -72h-99v257h164v62h-164v240h115q68 0 117 -20t80 -57t45.5 -89.5t14.5 -116.5z" />
<glyph unicode="&#xd1;" horiz-adv-x="664" d="M488 847l-39 16q-11 -17 -22.5 -25.5t-32.5 -8.5q-16 0 -31 6t-29.5 12.5t-30 12.5t-33.5 6q-35 0 -58.5 -21.5t-37.5 -51.5l40 -16q10 17 22 25.5t32 8.5q16 0 31 -6t30 -12.5t30 -12.5t33 -6q35 0 58.5 21t37.5 52zM589 0v692h-70v-589l-341 589h-98v-692h70v603 l351 -603h88z" />
<glyph unicode="&#xd2;" horiz-adv-x="692" d="M429 750l-145 132l-58 -31l170 -120zM641 346q0 69 -17.5 133.5t-53.5 114t-92 79.5t-133 30t-133 -30t-92 -79.5t-53.5 -114t-17.5 -133.5t17.5 -133.5t53.5 -114t92 -79.5t133 -30t133 30t92 79.5t53.5 114t17.5 133.5zM562 346q0 -50 -12 -102t-38 -94t-67.5 -69 t-99.5 -27q-59 0 -100 27t-67 69t-38 94t-12 102t12 102t38 94t67 69t100 27t100 -27t67 -69t38 -94t12 -102z" />
<glyph unicode="&#xd3;" horiz-adv-x="692" d="M458 851l-58 31l-145 -132l33 -19zM641 346q0 69 -17.5 133.5t-53.5 114t-92 79.5t-133 30t-133 -30t-92 -79.5t-53.5 -114t-17.5 -133.5t17.5 -133.5t53.5 -114t92 -79.5t133 -30t133 30t92 79.5t53.5 114t17.5 133.5zM562 346q0 -50 -12 -102t-38 -94t-67.5 -69 t-99.5 -27q-59 0 -100 27t-67 69t-38 94t-12 102t12 102t38 94t67 69t100 27t100 -27t67 -69t38 -94t12 -102z" />
<glyph unicode="&#xd4;" horiz-adv-x="692" d="M497 748l-130 134h-40l-129 -134l59 -4l90 82l91 -82zM641 346q0 69 -17.5 133.5t-53.5 114t-92 79.5t-133 30t-133 -30t-92 -79.5t-53.5 -114t-17.5 -133.5t17.5 -133.5t53.5 -114t92 -79.5t133 -30t133 30t92 79.5t53.5 114t17.5 133.5zM562 346q0 -50 -12 -102 t-38 -94t-67.5 -69t-99.5 -27q-59 0 -100 27t-67 69t-38 94t-12 102t12 102t38 94t67 69t100 27t100 -27t67 -69t38 -94t12 -102z" />
<glyph unicode="&#xd5;" horiz-adv-x="692" d="M501 847l-39 16q-11 -17 -22.5 -25.5t-32.5 -8.5q-16 0 -31 6t-29.5 12.5t-30 12.5t-33.5 6q-35 0 -58.5 -21.5t-37.5 -51.5l40 -16q10 17 22 25.5t32 8.5q16 0 31 -6t30 -12.5t30 -12.5t33 -6q35 0 58.5 21t37.5 52zM641 346q0 69 -17.5 133.5t-53.5 114t-92 79.5 t-133 30t-133 -30t-92 -79.5t-53.5 -114t-17.5 -133.5t17.5 -133.5t53.5 -114t92 -79.5t133 -30t133 30t92 79.5t53.5 114t17.5 133.5zM562 346q0 -50 -12 -102t-38 -94t-67.5 -69t-99.5 -27q-59 0 -100 27t-67 69t-38 94t-12 102t12 102t38 94t67 69t100 27t100 -27t67 -69 t38 -94t12 -102z" />
<glyph unicode="&#xd6;" horiz-adv-x="692" d="M469 776v92h-88v-92h88zM306 776v92h-88v-92h88zM641 346q0 69 -17.5 133.5t-53.5 114t-92 79.5t-133 30t-133 -30t-92 -79.5t-53.5 -114t-17.5 -133.5t17.5 -133.5t53.5 -114t92 -79.5t133 -30t133 30t92 79.5t53.5 114t17.5 133.5zM562 346q0 -50 -12 -102t-38 -94 t-67.5 -69t-99.5 -27q-59 0 -100 27t-67 69t-38 94t-12 102t12 102t38 94t67 69t100 27t100 -27t67 -69t38 -94t12 -102z" />
<glyph unicode="&#xd7;" horiz-adv-x="600" d="M545 75l-196 196l196 196l-48 48l-196 -196l-196 196l-48 -48l196 -196l-196 -196l48 -48l196 196l196 -196z" />
<glyph unicode="&#xd8;" horiz-adv-x="692" d="M656 710l-51 18l-74 -95q-38 38 -86.5 54t-101.5 16q-77 0 -132.5 -30t-91.5 -79.5t-53 -114t-17 -133.5q0 -65 15 -128.5t54 -116.5l-88 -113l51 -18l71 91q38 -39 87.5 -55.5t103.5 -16.5q77 0 132.5 30t91.5 79.5t53 114t17 133.5q0 66 -15.5 130t-55.5 118zM485 574 l-317 -408q-23 41 -31.5 87t-8.5 93q0 49 11.5 101t37.5 94.5t66.5 69.5t99.5 27q88 0 142 -64zM558 346q0 -50 -11.5 -101.5t-37.5 -94t-67 -69.5t-99 -27q-44 0 -80.5 16t-63.5 51l317 409q24 -42 33 -89t9 -95z" />
<glyph unicode="&#xd9;" horiz-adv-x="654" d="M413 750l-145 132l-58 -31l170 -120zM571 236v456h-70v-452q0 -84 -43 -134t-130 -50q-91 0 -130.5 49.5t-39.5 136.5v450h-77v-453q0 -119 62.5 -184.5t183.5 -65.5q116 0 180 66t64 181z" />
<glyph unicode="&#xda;" horiz-adv-x="654" d="M442 851l-58 31l-145 -132l33 -19zM571 236v456h-70v-452q0 -84 -43 -134t-130 -50q-91 0 -130.5 49.5t-39.5 136.5v450h-77v-453q0 -119 62.5 -184.5t183.5 -65.5q116 0 180 66t64 181z" />
<glyph unicode="&#xdb;" horiz-adv-x="654" d="M481 748l-130 134h-40l-129 -134l59 -4l90 82l91 -82zM571 236v456h-70v-452q0 -84 -43 -134t-130 -50q-91 0 -130.5 49.5t-39.5 136.5v450h-77v-453q0 -119 62.5 -184.5t183.5 -65.5q116 0 180 66t64 181z" />
<glyph unicode="&#xdc;" horiz-adv-x="654" d="M453 776v92h-88v-92h88zM290 776v92h-88v-92h88zM571 236v456h-70v-452q0 -84 -43 -134t-130 -50q-91 0 -130.5 49.5t-39.5 136.5v450h-77v-453q0 -119 62.5 -184.5t183.5 -65.5q116 0 180 66t64 181z" />
<glyph unicode="&#xdd;" horiz-adv-x="586" d="M408 851l-58 31l-145 -132l33 -19zM578 692h-76l-201 -329l-199 329h-91l246 -398v-294h77v292z" />
<glyph unicode="&#xde;" horiz-adv-x="529" d="M152 226v271h135q64 0 101 -33.5t37 -99.5q0 -40 -12.5 -65.5t-34 -41t-49 -22t-58 -9t-61.5 -1.5t-58 1zM502 356q0 51 -15.5 89.5t-44 64.5t-69 39.5t-89.5 13.5h-132v129h-77v-692h77v160h129q45 0 85 12.5t70.5 37.5t48 61.5t17.5 84.5z" />
<glyph unicode="&#xdf;" horiz-adv-x="568" d="M525 195q0 52 -24.5 88t-69.5 60q-9 4 -22.5 6.5t-26.5 5t-22 8t-6.5 17t18.5 30.5t53 49q24 20 36 48.5t12 58.5q0 40 -16 71t-42 52t-60.5 31.5t-71.5 10.5q-53 0 -92.5 -18t-66 -49.5t-40 -74.5t-13.5 -93q0 -125 0.5 -249t0.5 -249h70v487q0 36 6 70.5t21.5 60.5 t43 42t70.5 16q48 0 80.5 -28.5t32.5 -78.5q0 -30 -9 -51t-22 -36.5t-28 -28t-27.5 -25.5t-19 -29t-3.5 -39t16 -31.5t31 -12.5t38 -7t36.5 -14.5t27.5 -35t11 -68.5q0 -32 -11 -58t-30.5 -44t-46.5 -28t-58 -10q-20 0 -39.5 2.5t-38.5 10.5l-14 -57q24 -5 48 -9t49 -4 q46 0 86 13.5t69.5 40t46.5 64t17 85.5z" />
<glyph unicode="&#xe0;" horiz-adv-x="520" d="M346 579l-145 132l-58 -31l170 -120zM465 0q-3 7 -4.5 18t-2 23t-1 23t-0.5 19v261q0 94 -47 135.5t-138 41.5q-23 0 -55 -6t-61.5 -12.5t-50.5 -12.5l-21 -6l16 -46l18 4t43.5 9t54 9t50.5 4q59 0 90.5 -28.5t31.5 -88.5v-34q-30 -1 -67 -2t-75 -5t-74 -14t-63.5 -28.5 t-44.5 -48.5t-17 -75q0 -39 14 -67.5t37.5 -47t55 -28t67.5 -9.5q57 0 99.5 26t71.5 74l4 -88h69zM388 214q0 -35 -10.5 -65.5t-31 -53t-49 -36t-64.5 -13.5q-46 0 -78 22t-32 72q0 38 20.5 61t51 35.5t65.5 16.5t64 4h64v-43z" />
<glyph unicode="&#xe1;" horiz-adv-x="520" d="M375 680l-58 31l-145 -132l33 -19zM465 0q-3 7 -4.5 18t-2 23t-1 23t-0.5 19v261q0 94 -47 135.5t-138 41.5q-23 0 -55 -6t-61.5 -12.5t-50.5 -12.5l-21 -6l16 -46l18 4t43.5 9t54 9t50.5 4q59 0 90.5 -28.5t31.5 -88.5v-34q-30 -1 -67 -2t-75 -5t-74 -14t-63.5 -28.5 t-44.5 -48.5t-17 -75q0 -39 14 -67.5t37.5 -47t55 -28t67.5 -9.5q57 0 99.5 26t71.5 74l4 -88h69zM388 214q0 -35 -10.5 -65.5t-31 -53t-49 -36t-64.5 -13.5q-46 0 -78 22t-32 72q0 38 20.5 61t51 35.5t65.5 16.5t64 4h64v-43z" />
<glyph unicode="&#xe2;" horiz-adv-x="520" d="M414 577l-130 134h-40l-129 -134l59 -4l90 82l91 -82zM465 0q-3 7 -4.5 18t-2 23t-1 23t-0.5 19v261q0 94 -47 135.5t-138 41.5q-23 0 -55 -6t-61.5 -12.5t-50.5 -12.5l-21 -6l16 -46l18 4t43.5 9t54 9t50.5 4q59 0 90.5 -28.5t31.5 -88.5v-34q-30 -1 -67 -2t-75 -5 t-74 -14t-63.5 -28.5t-44.5 -48.5t-17 -75q0 -39 14 -67.5t37.5 -47t55 -28t67.5 -9.5q57 0 99.5 26t71.5 74l4 -88h69zM388 214q0 -35 -10.5 -65.5t-31 -53t-49 -36t-64.5 -13.5q-46 0 -78 22t-32 72q0 38 20.5 61t51 35.5t65.5 16.5t64 4h64v-43z" />
<glyph unicode="&#xe3;" horiz-adv-x="520" d="M418 676l-39 16q-11 -17 -22.5 -25.5t-32.5 -8.5q-16 0 -31 6t-29.5 12.5t-30 12.5t-33.5 6q-35 0 -58.5 -21.5t-37.5 -51.5l40 -16q10 17 22 25.5t32 8.5q16 0 31 -6t30 -12.5t30 -12.5t33 -6q35 0 58.5 21t37.5 52zM465 0q-3 7 -4.5 18t-2 23t-1 23t-0.5 19v261 q0 94 -47 135.5t-138 41.5q-23 0 -55 -6t-61.5 -12.5t-50.5 -12.5l-21 -6l16 -46l18 4t43.5 9t54 9t50.5 4q59 0 90.5 -28.5t31.5 -88.5v-34q-30 -1 -67 -2t-75 -5t-74 -14t-63.5 -28.5t-44.5 -48.5t-17 -75q0 -39 14 -67.5t37.5 -47t55 -28t67.5 -9.5q57 0 99.5 26t71.5 74 l4 -88h69zM388 214q0 -35 -10.5 -65.5t-31 -53t-49 -36t-64.5 -13.5q-46 0 -78 22t-32 72q0 38 20.5 61t51 35.5t65.5 16.5t64 4h64v-43z" />
<glyph unicode="&#xe4;" horiz-adv-x="520" d="M386 605v92h-88v-92h88zM223 605v92h-88v-92h88zM465 0q-3 7 -4.5 18t-2 23t-1 23t-0.5 19v261q0 94 -47 135.5t-138 41.5q-23 0 -55 -6t-61.5 -12.5t-50.5 -12.5l-21 -6l16 -46l18 4t43.5 9t54 9t50.5 4q59 0 90.5 -28.5t31.5 -88.5v-34q-30 -1 -67 -2t-75 -5t-74 -14 t-63.5 -28.5t-44.5 -48.5t-17 -75q0 -39 14 -67.5t37.5 -47t55 -28t67.5 -9.5q57 0 99.5 26t71.5 74l4 -88h69zM388 214q0 -35 -10.5 -65.5t-31 -53t-49 -36t-64.5 -13.5q-46 0 -78 22t-32 72q0 38 20.5 61t51 35.5t65.5 16.5t64 4h64v-43z" />
<glyph unicode="&#xe5;" horiz-adv-x="520" d="M354 652q0 19 -7.5 36t-20 29.5t-29.5 20t-36 7.5t-36 -7.5t-29.5 -20t-20 -29.5t-7.5 -36q0 -39 27 -66t66 -27q19 0 36 7.5t29.5 20t20 29.5t7.5 36zM313 652q0 -21 -15.5 -36.5t-36.5 -15.5q-23 0 -37.5 14.5t-14.5 37.5t14.5 37.5t37.5 14.5t37.5 -15t14.5 -37z M465 0q-3 7 -4.5 18t-2 23t-1 23t-0.5 19v261q0 94 -47 135.5t-138 41.5q-23 0 -55 -6t-61.5 -12.5t-50.5 -12.5l-21 -6l16 -46l18 4t43.5 9t54 9t50.5 4q59 0 90.5 -28.5t31.5 -88.5v-34q-30 -1 -67 -2t-75 -5t-74 -14t-63.5 -28.5t-44.5 -48.5t-17 -75q0 -39 14 -67.5 t37.5 -47t55 -28t67.5 -9.5q57 0 99.5 26t71.5 74l4 -88h69zM388 214q0 -35 -10.5 -65.5t-31 -53t-49 -36t-64.5 -13.5q-46 0 -78 22t-32 72q0 38 20.5 61t51 35.5t65.5 16.5t64 4h64v-43z" />
<glyph unicode="&#xe6;" horiz-adv-x="866" d="M817 253q0 51 -11 99.5t-35.5 86t-65 60t-99.5 22.5q-50 0 -92.5 -21.5t-73.5 -60.5q-27 47 -72 64t-96 17q-23 0 -55 -6t-61.5 -12.5t-50.5 -12.5l-21 -6l16 -46l18 4t44 9.5t54.5 9.5t50.5 4q60 0 90 -28.5t30 -88.5v-34q-31 -1 -67.5 -2t-74 -5t-72.5 -14t-62.5 -29 t-44 -49t-16.5 -74q0 -39 14 -67.5t37.5 -47t55 -28t67.5 -9.5q30 0 59 8t53.5 23t44 37t31.5 50q32 -59 82.5 -88t117.5 -29q23 0 55 6t61.5 12.5t50.5 12.5l21 6l-16 46l-19 -3.5t-46 -8t-56.5 -8t-51.5 -3.5q-44 0 -73 15.5t-47 41.5t-26 61.5t-10 74.5h360q2 6 2 11z M738 298h-282q4 31 15 61t29 53.5t44.5 37.5t62.5 14t61 -14t40.5 -37t22.5 -53t7 -62zM387 214q0 -34 -10.5 -64.5t-30 -53.5t-47.5 -36.5t-64 -13.5q-46 0 -77.5 22t-31.5 72q0 38 20.5 61t50.5 35.5t65 16.5t64 4h61v-43z" />
<glyph unicode="&#xe7;" horiz-adv-x="462" d="M354 -107q0 14 -6.5 25.5t-16.5 20t-23 13.5t-26 5q-8 0 -15.5 -0.5t-15.5 -1.5l11 34h8q23 0 54 5.5t59 12.5t47.5 13l19.5 6l-16 46l-18 -4t-43.5 -9t-54 -9t-50.5 -4q-45 0 -74.5 18.5t-47.5 48.5t-25.5 68t-7.5 77q0 38 9.5 74.5t29.5 65t51 46t74 17.5q18 0 40 -3.5 t41.5 -8t32.5 -8l13 -3.5l18 47l-13.5 5.5t-34.5 12.5t-47.5 12.5t-52.5 5.5q-59 0 -103.5 -21t-74 -57t-44.5 -84.5t-15 -103.5q0 -50 12 -95t36 -80.5t60.5 -58.5t86.5 -30l-23 -68l22 2t22 1q16 0 30 -9.5t14 -26.5q0 -20 -17.5 -28t-33.5 -8q-21 0 -42 6t-39 17l-9 -35 q23 -10 48 -16t50 -6q18 0 35.5 3.5t32 12t23.5 22.5t9 35z" />
<glyph unicode="&#xe8;" horiz-adv-x="520" d="M346 579l-145 132l-58 -31l170 -120zM477 242q0 54 -10 104t-34.5 89t-65.5 62.5t-104 23.5q-56 0 -98 -22.5t-70 -59.5t-42 -85t-14 -99q0 -57 13.5 -105.5t42 -84t72.5 -56t105 -20.5q23 0 53.5 6t58.5 12.5t47 12.5l19 6l-16 46l-18 -4t-43.5 -9t-54 -9t-50.5 -4 q-44 0 -72.5 16t-46 43t-25 62.5t-9.5 74.5h362zM400 298h-284q4 32 15 62t29.5 53t45 37t62.5 14t61 -14t40.5 -37.5t22.5 -53.5t8 -61z" />
<glyph unicode="&#xe9;" horiz-adv-x="520" d="M375 680l-58 31l-145 -132l33 -19zM477 242q0 54 -10 104t-34.5 89t-65.5 62.5t-104 23.5q-56 0 -98 -22.5t-70 -59.5t-42 -85t-14 -99q0 -57 13.5 -105.5t42 -84t72.5 -56t105 -20.5q23 0 53.5 6t58.5 12.5t47 12.5l19 6l-16 46l-18 -4t-43.5 -9t-54 -9t-50.5 -4 q-44 0 -72.5 16t-46 43t-25 62.5t-9.5 74.5h362zM400 298h-284q4 32 15 62t29.5 53t45 37t62.5 14t61 -14t40.5 -37.5t22.5 -53.5t8 -61z" />
<glyph unicode="&#xea;" horiz-adv-x="520" d="M414 577l-130 134h-40l-129 -134l59 -4l90 82l91 -82zM477 242q0 54 -10 104t-34.5 89t-65.5 62.5t-104 23.5q-56 0 -98 -22.5t-70 -59.5t-42 -85t-14 -99q0 -57 13.5 -105.5t42 -84t72.5 -56t105 -20.5q23 0 53.5 6t58.5 12.5t47 12.5l19 6l-16 46l-18 -4t-43.5 -9 t-54 -9t-50.5 -4q-44 0 -72.5 16t-46 43t-25 62.5t-9.5 74.5h362zM400 298h-284q4 32 15 62t29.5 53t45 37t62.5 14t61 -14t40.5 -37.5t22.5 -53.5t8 -61z" />
<glyph unicode="&#xeb;" horiz-adv-x="520" d="M386 605v92h-88v-92h88zM223 605v92h-88v-92h88zM477 242q0 54 -10 104t-34.5 89t-65.5 62.5t-104 23.5q-56 0 -98 -22.5t-70 -59.5t-42 -85t-14 -99q0 -57 13.5 -105.5t42 -84t72.5 -56t105 -20.5q23 0 53.5 6t58.5 12.5t47 12.5l19 6l-16 46l-18 -4t-43.5 -9t-54 -9 t-50.5 -4q-44 0 -72.5 16t-46 43t-25 62.5t-9.5 74.5h362zM400 298h-284q4 32 15 62t29.5 53t45 37t62.5 14t61 -14t40.5 -37.5t22.5 -53.5t8 -61z" />
<glyph unicode="&#xec;" horiz-adv-x="231" d="M201 579l-145 132l-58 -31l170 -120zM150 0v31v478h-70v-509h52h18z" />
<glyph unicode="&#xed;" horiz-adv-x="231" d="M230 680l-58 31l-145 -132l33 -19zM150 0v31v478h-70v-509h52h18z" />
<glyph unicode="&#xee;" horiz-adv-x="231" d="M269 577l-130 134h-40l-129 -134l59 -4l90 82l91 -82zM150 0v31v478h-70v-509h52h18z" />
<glyph unicode="&#xef;" horiz-adv-x="231" d="M241 605v92h-88v-92h88zM78 605v92h-88v-92h88zM150 0v31v478h-70v-509h52h18z" />
<glyph unicode="&#xf0;" d="M507 274q0 116 -44.5 206.5t-134.5 162.5l83 50l-37 38l-94 -57q-32 21 -70.5 34.5t-75.5 21.5l-34 -41q32 -8 62 -20t57 -31l-86 -52l38 -37l93 56q14 -11 29.5 -26t30 -32t27 -34.5t20.5 -33.5q-36 42 -93 42q-59 0 -104 -21.5t-75 -58t-45.5 -85.5t-15.5 -104 q0 -54 14.5 -102t44 -84t73 -57t101.5 -21q63 0 108 23.5t73.5 63t41.5 91t13 108.5zM430 252q0 -35 -9 -71t-28 -65.5t-48.5 -48.5t-69.5 -19q-44 0 -74.5 18t-49 47t-27 65.5t-8.5 74.5q0 37 8 74.5t27 67.5t49 49t74 19q42 0 72 -19.5t48.5 -50t27 -68t8.5 -73.5z" />
<glyph unicode="&#xf1;" d="M494 676l-39 16q-11 -17 -22.5 -25.5t-32.5 -8.5q-16 0 -31 6t-29.5 12.5t-30 12.5t-33.5 6q-35 0 -58.5 -21.5t-37.5 -51.5l40 -16q10 17 22 25.5t32 8.5q16 0 31 -6t30 -12.5t30 -12.5t33 -6q35 0 58.5 21t37.5 52zM474 0v327q0 43 -9.5 78.5t-30.5 61t-53.5 40 t-78.5 14.5q-60 0 -98.5 -28t-64.5 -80v96h-65v-509h70v284q0 34 9 66t27.5 56.5t46.5 39.5t66 15q28 0 48.5 -10t34.5 -27.5t21 -40.5t7 -49v-334h70z" />
<glyph unicode="&#xf2;" d="M359 579l-145 132l-58 -31l170 -120zM507 255q0 54 -14.5 102.5t-44 84.5t-73 57.5t-101.5 21.5q-59 0 -103 -21t-73 -57t-43.5 -84.5t-14.5 -103.5q0 -54 15 -102.5t44 -84.5t73 -57.5t102 -21.5t102 21t73 57.5t43.5 85t14.5 102.5zM430 255q0 -37 -8 -74t-26.5 -66.5 t-48.5 -48t-73 -18.5t-73 18.5t-48.5 48t-27 66.5t-8.5 74t8 74.5t27 66.5t48.5 47.5t73.5 18.5q43 0 73 -18.5t48.5 -48t26.5 -66.5t8 -74z" />
<glyph unicode="&#xf3;" d="M388 680l-58 31l-145 -132l33 -19zM507 255q0 54 -14.5 102.5t-44 84.5t-73 57.5t-101.5 21.5q-59 0 -103 -21t-73 -57t-43.5 -84.5t-14.5 -103.5q0 -54 15 -102.5t44 -84.5t73 -57.5t102 -21.5t102 21t73 57.5t43.5 85t14.5 102.5zM430 255q0 -37 -8 -74t-26.5 -66.5 t-48.5 -48t-73 -18.5t-73 18.5t-48.5 48t-27 66.5t-8.5 74t8 74.5t27 66.5t48.5 47.5t73.5 18.5q43 0 73 -18.5t48.5 -48t26.5 -66.5t8 -74z" />
<glyph unicode="&#xf4;" d="M427 577l-130 134h-40l-129 -134l59 -4l90 82l91 -82zM507 255q0 54 -14.5 102.5t-44 84.5t-73 57.5t-101.5 21.5q-59 0 -103 -21t-73 -57t-43.5 -84.5t-14.5 -103.5q0 -54 15 -102.5t44 -84.5t73 -57.5t102 -21.5t102 21t73 57.5t43.5 85t14.5 102.5zM430 255 q0 -37 -8 -74t-26.5 -66.5t-48.5 -48t-73 -18.5t-73 18.5t-48.5 48t-27 66.5t-8.5 74t8 74.5t27 66.5t48.5 47.5t73.5 18.5q43 0 73 -18.5t48.5 -48t26.5 -66.5t8 -74z" />
<glyph unicode="&#xf5;" d="M431 676l-39 16q-11 -17 -22.5 -25.5t-32.5 -8.5q-16 0 -31 6t-29.5 12.5t-30 12.5t-33.5 6q-35 0 -58.5 -21.5t-37.5 -51.5l40 -16q10 17 22 25.5t32 8.5q16 0 31 -6t30 -12.5t30 -12.5t33 -6q35 0 58.5 21t37.5 52zM507 255q0 54 -14.5 102.5t-44 84.5t-73 57.5 t-101.5 21.5q-59 0 -103 -21t-73 -57t-43.5 -84.5t-14.5 -103.5q0 -54 15 -102.5t44 -84.5t73 -57.5t102 -21.5t102 21t73 57.5t43.5 85t14.5 102.5zM430 255q0 -37 -8 -74t-26.5 -66.5t-48.5 -48t-73 -18.5t-73 18.5t-48.5 48t-27 66.5t-8.5 74t8 74.5t27 66.5t48.5 47.5 t73.5 18.5q43 0 73 -18.5t48.5 -48t26.5 -66.5t8 -74z" />
<glyph unicode="&#xf6;" d="M399 605v92h-88v-92h88zM236 605v92h-88v-92h88zM507 255q0 54 -14.5 102.5t-44 84.5t-73 57.5t-101.5 21.5q-59 0 -103 -21t-73 -57t-43.5 -84.5t-14.5 -103.5q0 -54 15 -102.5t44 -84.5t73 -57.5t102 -21.5t102 21t73 57.5t43.5 85t14.5 102.5zM430 255q0 -37 -8 -74 t-26.5 -66.5t-48.5 -48t-73 -18.5t-73 18.5t-48.5 48t-27 66.5t-8.5 74t8 74.5t27 66.5t48.5 47.5t73.5 18.5q43 0 73 -18.5t48.5 -48t26.5 -66.5t8 -74z" />
<glyph unicode="&#xf7;" horiz-adv-x="600" d="M344 421v91h-89v-91h89zM555 237v68h-511v-68h511zM344 30v91h-89v-91h89z" />
<glyph unicode="&#xf8;" d="M539 545q-14 1 -25.5 8t-24.5 8l-71 -88q-30 26 -67.5 37t-76.5 11q-59 0 -103 -21t-73 -57t-43.5 -84.5t-14.5 -103.5q0 -48 12 -95t41 -86l-86 -106q14 -1 25 -8t25 -7l70 86q31 -27 68.5 -38.5t78.5 -11.5q58 0 102 21t73 57.5t43.5 85t14.5 102.5q0 49 -11.5 96.5 t-43.5 86.5zM375 421l-234 -288q-14 28 -19 59.5t-5 62.5q0 37 8 74.5t27 66.5t48.5 47.5t73.5 18.5q29 0 55 -9.5t46 -31.5zM430 255q0 -37 -8 -74t-26.5 -66.5t-48.5 -48t-73 -18.5q-30 0 -57 10t-47 33l234 288q16 -29 21 -60.5t5 -63.5z" />
<glyph unicode="&#xf9;" d="M360 579l-145 132l-58 -31l170 -120zM471 0v509h-70v-283q0 -32 -9 -63.5t-27 -56.5t-45 -40.5t-63 -15.5q-32 0 -53.5 11.5t-34.5 31t-19 44.5t-6 53v319h-70v-319q0 -44 9.5 -81t30 -63.5t53.5 -41.5t81 -15q55 0 95.5 29.5t63.5 78.5l1 -97h63z" />
<glyph unicode="&#xfa;" d="M389 680l-58 31l-145 -132l33 -19zM471 0v509h-70v-283q0 -32 -9 -63.5t-27 -56.5t-45 -40.5t-63 -15.5q-32 0 -53.5 11.5t-34.5 31t-19 44.5t-6 53v319h-70v-319q0 -44 9.5 -81t30 -63.5t53.5 -41.5t81 -15q55 0 95.5 29.5t63.5 78.5l1 -97h63z" />
<glyph unicode="&#xfb;" d="M428 577l-130 134h-40l-129 -134l59 -4l90 82l91 -82zM471 0v509h-70v-283q0 -32 -9 -63.5t-27 -56.5t-45 -40.5t-63 -15.5q-32 0 -53.5 11.5t-34.5 31t-19 44.5t-6 53v319h-70v-319q0 -44 9.5 -81t30 -63.5t53.5 -41.5t81 -15q55 0 95.5 29.5t63.5 78.5l1 -97h63z" />
<glyph unicode="&#xfc;" d="M400 605v92h-88v-92h88zM237 605v92h-88v-92h88zM471 0v509h-70v-283q0 -32 -9 -63.5t-27 -56.5t-45 -40.5t-63 -15.5q-32 0 -53.5 11.5t-34.5 31t-19 44.5t-6 53v319h-70v-319q0 -44 9.5 -81t30 -63.5t53.5 -41.5t81 -15q55 0 95.5 29.5t63.5 78.5l1 -97h63z" />
<glyph unicode="&#xfd;" horiz-adv-x="432" d="M330 680l-58 31l-145 -132l33 -19zM431 509h-67l-144 -407l-140 407h-74l179 -507q-6 -22 -13.5 -47t-19.5 -46t-30.5 -35t-46.5 -14q-11 0 -24.5 3t-24.5 5l-3 -59q35 -8 67 -8q29 0 51 12t38.5 31.5t28 43.5t19.5 48z" />
<glyph unicode="&#xfe;" d="M510 254q0 50 -11 98t-36 85.5t-64.5 60.5t-97.5 23q-56 0 -93.5 -30.5t-61.5 -77.5v306h-70v-907h70v271q23 -47 64 -70.5t92 -23.5q55 0 94.5 23.5t65 61t37 85t11.5 95.5zM432 251q0 -35 -6.5 -71t-22.5 -65t-44 -47.5t-70 -18.5q-35 0 -61.5 16t-44.5 41.5t-27.5 57 t-9.5 62.5v66q0 30 10 60t29 54t45.5 39t58.5 15q42 0 70 -19.5t44 -50.5t22.5 -68t6.5 -71z" />
<glyph unicode="&#xff;" horiz-adv-x="432" d="M341 605v92h-88v-92h88zM178 605v92h-88v-92h88zM431 509h-67l-144 -407l-140 407h-74l179 -507q-6 -22 -13.5 -47t-19.5 -46t-30.5 -35t-46.5 -14q-11 0 -24.5 3t-24.5 5l-3 -59q35 -8 67 -8q29 0 51 12t38.5 31.5t28 43.5t19.5 48z" />
<glyph unicode="&#x152;" horiz-adv-x="943" d="M901 0v67h-322v260h268v65h-268v233h310v67h-386v-36q-75 44 -161 44q-77 0 -132 -29.5t-90.5 -79t-52.5 -113.5t-17 -133t17 -133t53 -113t91.5 -78t132.5 -29q25 0 45 2.5t38 8t36.5 14t39.5 20.5v-37h398zM502 141q0 -24 -17 -40.5t-41 -26.5t-50.5 -14t-45.5 -4 q-62 0 -103.5 25.5t-67 66.5t-36.5 92.5t-11 104.5t11 105t36.5 93.5t67 67t103.5 25.5q17 0 43 -4t51 -13t42.5 -24t17.5 -37v-417z" />
<glyph unicode="&#x153;" horiz-adv-x="885" d="M843 253q0 50 -10 98.5t-34 86t-63.5 60.5t-97.5 23q-57 0 -104.5 -25.5t-76.5 -74.5q-29 52 -81 76t-110 24q-59 0 -102 -21.5t-71.5 -58t-42.5 -84.5t-14 -102t14 -102t42.5 -84.5t71.5 -58t102 -21.5q58 0 108 23t84 71q69 -94 189 -94q23 0 56 6t63 12.5t51.5 12.5 l21.5 6l-16 46l-18 -4t-43.5 -9t-54 -9t-50.5 -4q-44 0 -75.5 16t-51.5 43t-30 62.5t-12 74.5h351q1 1 2.5 5.5t1.5 5.5zM763 305v-7h-274q3 31 13.5 60.5t29 53t44.5 38t61 14.5t59 -13.5t39 -36t21.5 -51t6.5 -58.5zM423 255q0 -37 -8 -74t-26.5 -66.5t-48 -48 t-72.5 -18.5t-72.5 18.5t-48 48t-26.5 66.5t-8 74t8 74t26.5 66.5t48 48t72.5 18.5t72.5 -18.5t48 -48t26.5 -66.5t8 -74z" />
<glyph unicode="&#x160;" horiz-adv-x="559" d="M430 872l-59 4l-92 -82l-91 82l-59 -4l130 -134h40zM509 183q0 63 -27 101t-68 61.5t-88 38t-88 31.5t-68 41.5t-27 67.5q0 31 13 52.5t34 35.5t47 20.5t53 6.5q21 0 50.5 -9t56 -19.5t45.5 -19.5l19 -9l22 56l-19 10t-47.5 22.5t-62 22.5t-62.5 10q-41 0 -81 -11 t-72 -33.5t-52 -56.5t-20 -80q0 -59 27 -95t67.5 -59t87.5 -38.5t87.5 -33.5t67.5 -44t27 -70q0 -32 -14.5 -56t-37 -39.5t-51 -23.5t-56.5 -8q-24 0 -57.5 12t-63.5 26.5t-51 26.5l-21 12l-28 -52l21.5 -14t53.5 -31.5t70.5 -31.5t71.5 -14q43 0 86.5 12t77.5 36t55.5 60.5 t21.5 85.5z" />
<glyph unicode="&#x161;" horiz-adv-x="453" d="M379 701l-59 4l-92 -82l-91 82l-59 -4l130 -134h40zM412 141q0 47 -21.5 75.5t-53.5 45.5t-70 27t-70 21.5t-53.5 28t-21.5 45.5q0 24 9.5 39t24.5 23.5t34 12t39 3.5q18 0 41.5 -4t44 -8.5t35 -8l14.5 -3.5l18 47l-14 5.5t-36.5 12.5t-49.5 12.5t-53 5.5q-33 0 -65 -8 t-57 -25t-40.5 -43.5t-15.5 -64.5q0 -46 21 -72.5t53 -43t69 -26.5t69 -22t53 -30.5t21 -51.5q0 -23 -12.5 -39.5t-32 -27t-42 -15t-41.5 -4.5q-22 0 -49.5 3.5t-51.5 8t-40.5 8.5l-16.5 4l-16 -46l19.5 -6t47.5 -12.5t59 -12.5t54 -6q36 0 71 8.5t63 26.5t45.5 47t17.5 70z " />
<glyph unicode="&#x178;" horiz-adv-x="586" d="M419 776v92h-88v-92h88zM256 776v92h-88v-92h88zM578 692h-76l-201 -329l-199 329h-91l246 -398v-294h77v292z" />
<glyph unicode="&#x192;" horiz-adv-x="578" d="M497 349q0 16 -11.5 27.5t-27.5 11.5t-27.5 -11.5t-11.5 -27.5t11.5 -27.5t27.5 -11.5t27.5 11.5t11.5 27.5zM540 727q-14 4 -27 7.5t-27 3.5q-38 0 -68 -12.5t-52 -34.5t-36.5 -52t-21.5 -65l-16 -78h-109l-4 -56h102l-75 -414q-5 -25 -11.5 -51.5t-18.5 -49t-32 -37 t-51 -14.5q-9 0 -19.5 1.5t-19.5 3.5l-13 -57q12 -2 26 -4t26 -2q47 0 78.5 16t52 43t32 63t19.5 76l79 426h125l5 56h-119q5 27 11 59t18 60t33.5 46.5t57.5 18.5q9 0 21.5 -3t21.5 -5zM174 365q0 16 -11 27.5t-27 11.5t-27.5 -11.5t-11.5 -27.5t11.5 -27.5t27.5 -11.5 t27.5 11.5t11.5 27.5h-1zM301 -183q0 16 -11.5 27.5t-27.5 11.5t-27.5 -11.5t-11.5 -27.5t11.5 -27.5t27.5 -11.5t27.5 11.5t11.5 27.5z" />
<glyph unicode="&#x2c6;" horiz-adv-x="348" d="M325 577l-130 134h-40l-129 -134l59 -4l90 82l91 -82z" />
<glyph unicode="&#x2dc;" horiz-adv-x="358" d="M334 676l-39 16q-11 -17 -22.5 -25.5t-32.5 -8.5q-16 0 -31 6t-29.5 12.5t-30 12.5t-33.5 6q-35 0 -58.5 -21.5t-37.5 -51.5l40 -16q10 17 22 25.5t32 8.5q16 0 31 -6t30 -12.5t30 -12.5t33 -6q35 0 58.5 21t37.5 52z" />
<glyph unicode="&#x2013;" horiz-adv-x="500" d="M501 230v66h-501v-66h501z" />
<glyph unicode="&#x2014;" horiz-adv-x="1000" d="M1001 230v66h-1001v-66h1001z" />
<glyph unicode="&#x2018;" horiz-adv-x="295" d="M215 671l-39 28q-16 -19 -32.5 -48t-29.5 -61t-21.5 -64t-8.5 -57v-15q0 -6 1 -14h97q0 58 9.5 116.5t23.5 114.5z" />
<glyph unicode="&#x2019;" horiz-adv-x="290" d="M215 670v14q0 7 -1 15h-97q0 -58 -9.5 -116.5t-23.5 -114.5l39 -28q16 19 32.5 48t29.5 61t21.5 63.5t8.5 57.5z" />
<glyph unicode="&#x201a;" horiz-adv-x="277" d="M205 70v14q0 7 -1 15h-97q0 -58 -9.5 -116.5t-23.5 -114.5l39 -28q16 19 32.5 48t29.5 61t21.5 63.5t8.5 57.5z" />
<glyph unicode="&#x201c;" horiz-adv-x="509" d="M415 671l-39 28q-16 -19 -32.5 -48t-29.5 -61t-21.5 -64t-8.5 -57v-15q0 -6 1 -14h97q0 58 9.5 116.5t23.5 114.5zM215 671l-39 28q-16 -19 -32.5 -48t-29.5 -61t-21.5 -64t-8.5 -57v-15q0 -6 1 -14h97q0 58 9.5 116.5t23.5 114.5z" />
<glyph unicode="&#x201d;" horiz-adv-x="509" d="M415 670v14q0 7 -1 15h-97q0 -58 -9.5 -116.5t-23.5 -114.5l39 -28q16 19 32.5 48t29.5 61t21.5 63.5t8.5 57.5zM215 670v14q0 7 -1 15h-97q0 -58 -9.5 -116.5t-23.5 -114.5l39 -28q16 19 32.5 48t29.5 61t21.5 63.5t8.5 57.5z" />
<glyph unicode="&#x201e;" horiz-adv-x="509" d="M405 70v14q0 7 -1 15h-97q0 -58 -9.5 -116.5t-23.5 -114.5l39 -28q16 19 32.5 48t29.5 61t21.5 63.5t8.5 57.5zM205 70v14q0 7 -1 15h-97q0 -58 -9.5 -116.5t-23.5 -114.5l39 -28q16 19 32.5 48t29.5 61t21.5 63.5t8.5 57.5z" />
<glyph unicode="&#x2020;" horiz-adv-x="578" d="M506 434q-2 9 -3.5 18t-1.5 18t1.5 19t3.5 19l-190 -16l21 200q-12 -2 -24.5 -4t-24.5 -2q-11 0 -23.5 2t-23.5 4l21 -200l-190 16q2 -9 3.5 -19t1.5 -19t-1.5 -18t-3.5 -18l190 16q-1 -3 -4 -16.5t-6.5 -29t-6.5 -28t-3 -13.5q0 -17 2.5 -35t4.5 -35l4 -72t3 -72l6 -233 h54l6 234q1 36 3 71.5t4 71.5q2 17 4.5 35t2.5 35q0 1 -3 13.5t-6.5 28t-6.5 29t-4 16.5z" />
<glyph unicode="&#x2021;" horiz-adv-x="578" d="M507 240q-2 9 -3.5 18t-1.5 18t1.5 19t3.5 19l-191 -16q2 19 5.5 39.5t3.5 39.5q0 20 -3.5 42.5t-5.5 42.5l191 -16q-2 9 -3.5 18t-1.5 18t1.5 19t3.5 19l-191 -16l15 188q-10 -2 -21 -5t-21 -3t-21 3t-21 5l15 -188l-191 16q2 -9 3.5 -19t1.5 -19t-1.5 -18t-3.5 -18 l191 16q-2 -20 -5.5 -42.5t-3.5 -42.5q0 -19 3.5 -39.5t5.5 -39.5l-191 16q2 -9 3.5 -19t1.5 -19t-1.5 -18t-3.5 -18l191 16q-8 -15 -14.5 -33t-6.5 -35q0 -23 3 -47t5 -47l16 -178h48l16 179q2 23 5 47.5t3 47.5q0 17 -6.5 34t-14.5 32z" />
<glyph unicode="&#x2022;" horiz-adv-x="549" d="M357 365q0 21 -7.5 39t-21 31.5t-31.5 21t-39 7.5q-42 0 -70.5 -28.5t-28.5 -70.5q0 -21 7.5 -39t21 -31.5t31.5 -21t39 -7.5q42 0 70.5 28.5t28.5 70.5z" />
<glyph unicode="&#x2026;" horiz-adv-x="1000" d="M882 0v98h-96v-98h96zM549 0v98h-96v-98h96zM216 0v98h-96v-98h96z" />
<glyph unicode="&#x2030;" horiz-adv-x="1020" d="M980 170q0 32 -7 63.5t-22.5 56.5t-41.5 40.5t-63 15.5q-39 0 -65 -15t-41.5 -40t-22 -57t-6.5 -65t6.5 -65t22.5 -56.5t42 -40t64 -15.5q37 0 63 16t41.5 41.5t22.5 57t7 63.5zM918 169q0 -17 -2.5 -39t-10 -41.5t-21.5 -33t-37 -13.5q-24 0 -39 13t-22.5 32t-10 41.5 t-2.5 40.5t2.5 40t10 41.5t21.5 33t38 13.5t38.5 -13.5t22 -33t10 -41.5t2.5 -40zM601 703h-66l-435 -714h65zM303 524q0 32 -7 63.5t-22.5 56.5t-41.5 40.5t-63 15.5q-39 0 -65 -15t-41.5 -40t-22 -57t-6.5 -65q0 -32 6.5 -64t22.5 -57.5t41.5 -41t63.5 -15.5q37 0 63 16 t42 41.5t23 57.5t7 64zM241 523q0 -17 -2.5 -39.5t-10 -42t-21.5 -33t-37 -13.5q-24 0 -39 13t-22.5 32.5t-10 42t-2.5 40.5t2.5 40t10 41.5t21.5 33t37 13.5q24 0 39 -13t22.5 -32.5t10 -42t2.5 -40.5zM646 170q0 32 -7 63.5t-22.5 56.5t-41.5 40.5t-63 15.5q-39 0 -65 -15 t-41.5 -40t-22 -57t-6.5 -65t6.5 -65t22.5 -56.5t42 -40t64 -15.5q37 0 63 16t41.5 41.5t22.5 57t7 63.5zM584 169q0 -17 -2.5 -39t-10 -41.5t-21.5 -33t-37 -13.5q-24 0 -39 13t-22.5 32t-10 41.5t-2.5 40.5t2.5 40t10 41.5t21.5 33t38 13.5t38.5 -13.5t22 -33t10 -41.5 t2.5 -40z" />
<glyph unicode="&#x2039;" horiz-adv-x="269" d="M219 89l-95 174l95 174h-53l-112 -171v-6l112 -171h53z" />
<glyph unicode="&#x203a;" horiz-adv-x="269" d="M215 260v6l-110 171h-53l93 -174l-93 -174h53z" />
<glyph unicode="&#x2122;" horiz-adv-x="917" d="M868 279v413h-99l-118 -325l-119 325h-97v-413h58v361l134 -361h44l134 361v-361h63zM357 643v49h-308v-49h122v-364h63v364h123z" />
<glyph unicode="&#xe000;" horiz-adv-x="510" d="M0 510h510v-510h-510v510z" />
<glyph unicode="&#xe001;" horiz-adv-x="289" />
<glyph unicode="&#xe002;" horiz-adv-x="500" />
<glyph unicode="&#xe003;" horiz-adv-x="289" />
<glyph unicode="&#xe004;" horiz-adv-x="500" />
<glyph unicode="&#xe005;" horiz-adv-x="500" />
<glyph unicode="&#xe006;" horiz-adv-x="500" />
<glyph unicode="&#xe007;" horiz-adv-x="500" />
<glyph unicode="&#xe008;" horiz-adv-x="500" />
<glyph unicode="&#xe009;" horiz-adv-x="600" d="M555 237v68h-511v-68h511z" />
<glyph unicode="&#xe00a;" horiz-adv-x="500" />
<glyph unicode="&#xe00b;" horiz-adv-x="500" />
<glyph unicode="&#xe00c;" horiz-adv-x="500" />
<glyph unicode="&#xe00d;" horiz-adv-x="600" d="M555 138v68h-248l53 130h195v68h-167l45 110h-68l-45 -110h-276v-68h248l-53 -130h-195v-68h167l-45 -110h68l45 110h276z" />
<glyph unicode="&#xe00e;" horiz-adv-x="713" d="M689 264q0 29 -11.5 54.5t-31 44.5t-45 30t-54.5 11q-30 0 -56 -9t-49 -24t-44 -34t-41 -38q-20 19 -41 38t-44.5 34t-49.5 24t-55 9t-54.5 -11t-45 -30t-31 -44.5t-11.5 -54.5t11.5 -54.5t31 -44.5t45 -30t54.5 -11q28 0 54 9.5t50 24.5t45 34t41 37q19 -18 40.5 -37 t45.5 -34t49.5 -24.5t54.5 -9.5t54.5 11t45 30t31 44.5t11.5 54.5zM638 264q0 -42 -25 -65.5t-66 -23.5q-23 0 -44.5 8t-40.5 20.5t-35.5 28.5t-31.5 32q15 16 32 32t36 28.5t40 20.5t44 8q37 0 64 -25.5t27 -63.5zM319 264q-15 -16 -32 -32t-36 -28.5t-40 -20.5t-44 -8 q-42 0 -66.5 23.5t-24.5 65.5q0 38 27 63.5t64 25.5q23 0 44.5 -8t40.5 -20.5t35.5 -28.5t31.5 -32z" />
<glyph unicode="&#xe00f;" horiz-adv-x="600" d="M550 94v64l-414 177l414 177v64l-499 -218v-46zM550 0v59h-499v-59h499z" />
<glyph unicode="&#xe010;" horiz-adv-x="600" d="M550 312v46l-499 218v-64l414 -177l-414 -177v-64zM550 0v59h-499v-59h499z" />
<glyph unicode="&#xe011;" horiz-adv-x="494" d="M462 393q0 59 -15.5 122t-48 115t-83 85.5t-119.5 33.5q-36 0 -67.5 -9t-63.5 -23l39 -50q27 14 55 23.5t59 9.5q50 0 82.5 -25t51 -63t26 -82.5t7.5 -84.5q0 -28 -3 -56t-8 -55q-35 30 -68.5 49t-81.5 19q-45 0 -81.5 -19.5t-62.5 -51.5t-40 -72.5t-14 -82.5 q0 -43 13.5 -81t47.5 -66q28 -23 60 -36.5t68 -13.5q47 0 84 20.5t64 54t46 76.5t31 89t17 91.5t5 82.5zM366 299q-3 -23 -7.5 -53.5t-12 -62.5t-19.5 -63.5t-29.5 -56t-41 -39.5t-54.5 -15q-27 0 -44.5 13.5t-27.5 34t-14 45t-4 46.5q0 42 10 83t36 74q19 23 43.5 40.5 t56.5 17.5q35 0 62 -17.5t46 -46.5z" />
<glyph unicode="&#xe012;" horiz-adv-x="768" d="M736 0v162h-15q-4 -17 -8 -28.5t-11 -18.5t-18 -10.5t-29 -3.5h-158l2 28q48 11 88 36t68.5 60.5t44.5 79.5t16 94q0 70 -27.5 124t-73 90.5t-105.5 55.5t-125 19t-125 -19t-105.5 -55.5t-73 -90.5t-27.5 -124q0 -52 15 -96.5t43 -79t68.5 -59t90.5 -35.5l2 -28h-158 q-18 0 -29.5 3.5t-18 10.5t-10.5 18.5t-8 28.5h-15v-162h295l-16 152q-41 11 -68.5 37.5t-44 61t-23 74t-6.5 77.5q0 52 12 98.5t37.5 81t66 54.5t98.5 20q57 0 98 -20.5t66.5 -55t37.5 -80.5t12 -98q0 -38 -7 -77t-23.5 -73t-44 -60.5t-67.5 -39.5l-16 -152h295z" />
<glyph unicode="&#xe013;" horiz-adv-x="549" d="M515 912l-35 5l-127 -798l-197 403l-146 -72l16 -33l96 47l243 -502z" />
<glyph unicode="&#xe014;" horiz-adv-x="600" d="M548 393l-48 37q-16 -24 -39.5 -39t-52.5 -15q-22 0 -49.5 8t-57 18t-59 18t-54.5 8q-46 0 -81 -21.5t-61 -57.5l48 -40q17 26 37.5 43t53.5 17q24 0 52.5 -8.5t58 -19t59 -19t56.5 -8.5q41 0 79 22t58 57zM548 195l-48 37q-16 -24 -39.5 -39t-52.5 -15q-22 0 -49.5 8 t-57 18t-59 18t-54.5 8q-46 0 -81 -21.5t-61 -57.5l48 -40q17 26 37.5 43t53.5 17q24 0 52.5 -8.5t58 -19t59 -19t56.5 -8.5q41 0 79 22t58 57z" />
<glyph unicode="&#xe015;" horiz-adv-x="122" />
<glyph unicode="&#xe016;" horiz-adv-x="494" d="M466 377l-194 368h-60l-194 -368l194 -377h60zM406 377l-164 -323l-164 323l164 314z" />
<glyph unicode="&#xe017;" horiz-adv-x="1041" d="M949 149l-95 174l95 174h-53l-112 -171v-6l112 -171h53zM949 34q0 16 -11.5 27.5t-27.5 11.5t-27.5 -11.5t-11.5 -27.5t11.5 -27.5t27.5 -11.5t27.5 11.5t11.5 27.5zM755 0v327q0 40 -8.5 75.5t-27.5 61.5t-49.5 41.5t-75.5 15.5q-58 0 -99.5 -32t-61.5 -85 q-11 55 -46.5 86t-92.5 31q-59 0 -95 -28.5t-60 -79.5v96h-65v-509h70v291q0 31 7 61.5t23 54.5t40.5 39t60.5 15q29 0 49 -11t32 -29.5t17.5 -42.5t5.5 -49v-329h70v293q0 30 7 60t23 54t41 39t60 15q28 0 48 -11.5t33 -30t18.5 -42t5.5 -48.5v-329h70z" />
<glyph unicode="&#xe018;" horiz-adv-x="289" d="M195 251v98h-96v-98h96z" />
<glyph unicode="&#xe019;" horiz-adv-x="578" d="M518 525l-50 50l-59 -59q-26 23 -58 33.5t-65 10.5t-65.5 -11.5t-58.5 -32.5l-58 59l-50 -50l59 -58q-45 -54 -45 -124q0 -34 11.5 -66t33.5 -58l-59 -58l50 -50l58 59q26 -23 58 -33.5t65 -10.5t65.5 11.5t58.5 32.5l58 -59l50 50l-59 58q45 54 45 124q0 34 -11.5 66 t-33.5 58zM430 343q0 -30 -11.5 -56.5t-31 -46t-46 -30.5t-56.5 -11t-56.5 11t-46 30.5t-30.5 46t-11 56.5t11.5 56t31 45.5t46 31t56.5 11.5t56 -11.5t45.5 -31t31 -45.5t11.5 -56z" />
</font>
</defs>
</svg>
